<svg width="21" height="21" viewBox="0 0 21 21" fill="none" xmlns="http://www.w3.org/2000/svg">
<path d="M20.125 9.625H19.2063C19.0017 7.61773 18.1109 5.74248 16.6842 4.31577C15.2575 2.88907 13.3823 1.99828 11.375 1.79375V0H9.625V1.79375C7.61773 1.99828 5.74248 2.88907 4.31577 4.31577C2.88907 5.74248 1.99828 7.61773 1.79375 9.625H0V11.375H1.79375C1.99828 13.3823 2.88907 15.2575 4.31577 16.6842C5.74248 18.1109 7.61773 19.0017 9.625 19.2063V21H11.375V19.2063C13.3823 19.0017 15.2575 18.1109 16.6842 16.6842C18.1109 15.2575 19.0017 13.3823 19.2063 11.375H21V9.625H20.125ZM12.0076 9.625C11.8553 9.36275 11.6373 9.14471 11.375 8.99238V6.89587C12.0362 7.05733 12.6403 7.39721 13.1215 7.87845C13.6028 8.3597 13.9427 8.96384 14.1041 9.625H12.0076ZM14.1041 11.375C13.9427 12.0362 13.6028 12.6403 13.1215 13.1215C12.6403 13.6028 12.0362 13.9427 11.375 14.1041V12.0076C11.6373 11.8553 11.8553 11.6373 12.0076 11.375H14.1041ZM9.625 3.56125V5.55013C8.61054 5.73102 7.67596 6.21867 6.94732 6.94732C6.21867 7.67596 5.73102 8.61054 5.55013 9.625H3.56037C3.75672 8.08525 4.45884 6.6543 5.5565 5.55679C6.65417 4.45928 8.08522 3.75737 9.625 3.56125ZM8.99238 9.625H6.89587C7.05742 8.96388 7.39733 8.35979 7.87856 7.87856C8.35979 7.39733 8.96388 7.05742 9.625 6.89587V8.99238C9.36275 9.14471 9.14471 9.36275 8.99238 9.625ZM9.625 12.0076V14.1041C8.96384 13.9427 8.3597 13.6028 7.87845 13.1215C7.39721 12.6403 7.05733 12.0362 6.89587 11.375H8.99238C9.14471 11.6373 9.36275 11.8553 9.625 12.0076ZM3.56125 11.375H5.55013C5.73102 12.3895 6.21867 13.324 6.94732 14.0527C7.67596 14.7813 8.61054 15.269 9.625 15.4499V17.4396C8.08525 17.2433 6.6543 16.5412 5.55679 15.4435C4.45928 14.3458 3.75737 12.9148 3.56125 11.375ZM11.375 17.4388V15.4499C12.3895 15.269 13.324 14.7813 14.0527 14.0527C14.7813 13.324 15.269 12.3895 15.4499 11.375H17.4396C17.2433 12.9148 16.5412 14.3457 15.4435 15.4432C14.3458 16.5407 12.9148 17.2426 11.375 17.4388ZM15.4499 9.625C15.269 8.61054 14.7813 7.67596 14.0527 6.94732C13.324 6.21867 12.3895 5.73102 11.375 5.55013V3.56037C12.9148 3.75672 14.3457 4.45884 15.4432 5.5565C16.5407 6.65417 17.2426 8.08522 17.4388 9.625H15.4499Z" fill="white"/>
</svg>
