<svg width="16" height="23" viewBox="0 0 16 23" fill="none" xmlns="http://www.w3.org/2000/svg">
<path d="M11.0918 13.9711C11.0918 13.9711 10.2086 11.7223 9.35164 9.57509C9.35164 9.57509 9.06459 8.28464 9.28906 6.57203C9.28906 6.57203 9.89893 3.95424 9.55964 2.7165C9.55964 2.7165 9.03871 1.65607 7.95638 1.58227C7.95638 1.58227 6.46276 1.68961 6.18371 3.16933C6.18371 3.16933 6.11077 4.02229 6.34277 5.00653C6.34277 5.00653 7.17898 8.26356 6.26183 10.3892C6.26183 10.3892 4.98233 13.1115 4.88068 13.7349C4.88068 13.7349 4.40163 16.402 4.87315 18.3662C4.87315 18.3662 5.86325 21.7268 6.58794 22.8399C6.58794 22.8399 8.05802 23.2218 9.31917 22.8059C9.31917 22.8059 10.8311 20.3132 11.1333 18.0605C11.1342 18.0605 11.5116 15.6804 11.0918 13.9711ZM15.8019 12.3879C15.8019 12.3879 14.9191 10.1386 14.0584 7.99234C14.0584 7.99234 13.7718 6.70141 13.9953 4.99168C13.9953 4.99168 14.6061 2.37389 14.2659 1.13327C14.2659 1.13327 13.7473 0.0728362 12.664 0C12.664 0 11.17 0.106858 10.8914 1.5861C10.8914 1.5861 10.818 2.43953 11.0528 3.42378C11.0528 3.42378 11.8895 6.68368 10.9695 8.806C10.9695 8.806 10.7709 9.23295 10.5234 9.78018C11.3267 11.7904 12.0984 13.7541 12.0984 13.7541L12.1106 13.7881L12.1186 13.8216C12.56 15.6095 12.1845 18.0131 12.1709 18.1022C12.0278 19.1727 11.6316 20.2672 11.2405 21.1594L11.2984 21.2567C11.2984 21.2567 12.7671 21.6391 14.0297 21.2203C14.0297 21.2203 15.5407 18.7309 15.8433 16.4768C15.8433 16.4763 16.2221 14.0967 15.8019 12.3879ZM5.28255 10.1851C5.33244 10.0734 5.37385 9.95029 5.4129 9.82954C5.18326 9.24876 4.93291 8.62486 4.68586 8.00288C4.68586 8.00288 4.39598 6.70908 4.6228 4.99982C4.6228 4.99982 5.23314 2.38443 4.89433 1.14382C4.89433 1.14382 4.3734 0.0828991 3.2906 0.0100629C3.2906 0.0100629 1.79557 0.119797 1.5184 1.59329C1.5184 1.59329 1.44593 2.45008 1.68028 3.43145C1.68028 3.43145 2.51697 6.69039 1.59699 8.81606C1.59699 8.81606 0.317484 11.5388 0.215368 12.1617C0.215368 12.1617 -0.264151 14.8294 0.207839 16.7931C0.207839 16.7931 1.19794 20.1541 1.92216 21.2643C1.92216 21.2643 3.39271 21.6496 4.65339 21.2298L4.73198 21.0966C4.41476 20.2367 4.12551 19.3664 3.8647 18.487C3.37436 16.4399 3.84635 13.7569 3.8647 13.6544C3.97105 12.9912 5.06891 10.6355 5.28255 10.1851Z" fill="white"/>
</svg>
