<svg width="21" height="21" viewBox="0 0 21 21" fill="none" xmlns="http://www.w3.org/2000/svg">
<path d="M10.5 18.06C7.875 18.06 5.5545 16.716 4.2 14.7C4.2315 12.6 8.4 11.445 10.5 11.445C12.6 11.445 16.7685 12.6 16.8 14.7C16.1058 15.7336 15.1681 16.5807 14.0695 17.1666C12.9709 17.7526 11.7451 18.0594 10.5 18.06ZM10.5 3.15C11.3354 3.15 12.1366 3.48187 12.7274 4.07261C13.3181 4.66335 13.65 5.46457 13.65 6.3C13.65 7.13543 13.3181 7.93665 12.7274 8.52739C12.1366 9.11813 11.3354 9.45 10.5 9.45C9.66457 9.45 8.86335 9.11813 8.27261 8.52739C7.68187 7.93665 7.35 7.13543 7.35 6.3C7.35 5.46457 7.68187 4.66335 8.27261 4.07261C8.86335 3.48187 9.66457 3.15 10.5 3.15ZM10.5 0C9.12112 0 7.75574 0.271591 6.48182 0.799265C5.2079 1.32694 4.05039 2.10036 3.07538 3.07538C1.10625 5.04451 0 7.71523 0 10.5C0 13.2848 1.10625 15.9555 3.07538 17.9246C4.05039 18.8996 5.2079 19.6731 6.48182 20.2007C7.75574 20.7284 9.12112 21 10.5 21C13.2848 21 15.9555 19.8938 17.9246 17.9246C19.8938 15.9555 21 13.2848 21 10.5C21 4.6935 16.275 0 10.5 0Z" fill="white"/>
</svg>
