<svg width="1001" height="1001" viewBox="0 0 1001 1001" fill="none" xmlns="http://www.w3.org/2000/svg">
<path d="M178.594 874.418C353.114 966.418 636.073 966.418 810.594 874.418C985.114 782.418 985.114 633.178 810.594 541.158C636.073 449.138 353.114 449.158 178.594 541.158C4.07355 633.158 4.05356 782.398 178.594 874.418Z" fill="#181818"/>
<path d="M327.541 714.822L332.781 708.582L174.041 616.922L163.281 623.122L219.661 655.682L165.521 686.942L108.661 654.102L97.9214 660.322L260.401 754.122L262.101 752.082L262.961 752.562L325.281 716.662L325.781 716.942L326.681 715.842L328.021 715.082L327.541 714.822Z" fill="#202020"/>
<path d="M715.344 806.28C764.188 806.28 803.784 787.413 803.784 764.14C803.784 740.867 764.188 722 715.344 722C666.5 722 626.904 740.867 626.904 764.14C626.904 787.413 666.5 806.28 715.344 806.28Z" fill="#202020"/>
<path d="M448.17 893.141C497.014 893.141 536.61 874.275 536.61 851.001C536.61 827.728 497.014 808.861 448.17 808.861C399.326 808.861 359.73 827.728 359.73 851.001C359.73 874.275 399.326 893.141 448.17 893.141Z" fill="#202020"/>
<path d="M785.857 816.78C803.017 826.78 830.837 826.78 847.997 816.78C865.157 806.78 865.157 790.78 847.997 780.9C830.837 771.02 803.017 771 785.857 780.9C768.697 790.8 768.697 806.88 785.857 816.78Z" fill="#202020"/>
<path d="M180.204 834.722C204.472 834.722 224.144 823.368 224.144 809.362C224.144 795.356 204.472 784.002 180.204 784.002C155.937 784.002 136.264 795.356 136.264 809.362C136.264 823.368 155.937 834.722 180.204 834.722Z" fill="#202020"/>
<path d="M262.52 379.184L173.48 621.724C173.187 622.459 172.631 623.058 171.92 623.404C170.663 624.045 169.271 624.379 167.86 624.379C166.449 624.379 165.057 624.045 163.8 623.404C163.394 623.213 163.034 622.935 162.747 622.589C162.46 622.244 162.253 621.839 162.14 621.404C162.1 621.186 162.1 620.962 162.14 620.744C162.161 620.178 162.269 619.618 162.46 619.084L251.8 375.224C252.05 374.499 252.442 373.83 252.954 373.258C253.466 372.686 254.087 372.222 254.781 371.894C255.475 371.565 256.227 371.379 256.994 371.345C257.761 371.312 258.527 371.432 259.247 371.698C259.966 371.965 260.626 372.373 261.186 372.898C261.746 373.423 262.195 374.054 262.507 374.755C262.82 375.457 262.989 376.213 263.005 376.981C263.021 377.748 262.883 378.511 262.6 379.224L262.52 379.184Z" fill="#37474F"/>
<path d="M143.482 546.064L232.842 597.664" stroke="#37474F" stroke-width="12" stroke-miterlimit="10"/>
<path d="M208.437 508.545L297.817 560.145" stroke="#37474F" stroke-width="12" stroke-miterlimit="10"/>
<path d="M189.864 362.524L237.524 335.004C239.281 333.866 241.293 333.185 243.38 333.021C245.466 332.857 247.56 333.217 249.473 334.067C251.385 334.917 253.056 336.23 254.332 337.889C255.609 339.547 256.452 341.498 256.784 343.564L335.904 713.724C335.967 713.973 336 714.228 336.004 714.484C336.034 714.75 336.034 715.018 336.004 715.284C335.89 715.718 335.682 716.122 335.395 716.468C335.109 716.813 334.75 717.092 334.344 717.284C333.087 717.925 331.695 718.259 330.284 718.259C328.873 718.259 327.481 717.925 326.224 717.284C325.513 716.913 324.954 716.304 324.644 715.564C324.637 715.451 324.637 715.337 324.644 715.224L245.544 345.964C245.489 345.419 245.224 344.916 244.804 344.564C244.537 344.525 244.264 344.54 244.003 344.609C243.742 344.677 243.497 344.798 243.284 344.964L195.604 372.484" fill="#455A64"/>
<path d="M267.64 716.226L238.62 699.466C238.114 699.138 237.692 698.696 237.39 698.175C237.087 697.653 236.913 697.068 236.88 696.466V695.786C236.909 695.183 237.083 694.596 237.386 694.074C237.688 693.553 238.111 693.111 238.62 692.786L308.26 652.566C308.799 652.29 309.395 652.146 310 652.146C310.605 652.146 311.201 652.29 311.74 652.566L340.76 669.326C341.265 669.654 341.686 670.097 341.988 670.618C342.29 671.139 342.466 671.724 342.5 672.326V673.026C342.466 673.627 342.29 674.212 341.988 674.733C341.686 675.255 341.265 675.697 340.76 676.026L271.12 716.226C270.581 716.501 269.985 716.645 269.38 716.645C268.775 716.645 268.179 716.501 267.64 716.226Z" fill="#1FB8CF"/>
<path opacity="0.1" d="M237.4 694.104C237.08 694.622 236.901 695.215 236.88 695.823V696.504C236.913 697.105 237.087 697.691 237.39 698.212C237.692 698.734 238.114 699.176 238.62 699.504L267.64 716.224C268.175 716.509 268.774 716.654 269.38 716.643V712.544L237.4 694.104Z" fill="black"/>
<path opacity="0.15" d="M269.373 712.586V716.686C269.98 716.696 270.579 716.552 271.113 716.266L305.933 696.266L340.753 676.166C341.258 675.837 341.679 675.394 341.981 674.873C342.284 674.352 342.459 673.767 342.493 673.166V672.466C342.472 671.863 342.293 671.277 341.973 670.766L269.373 712.586Z" fill="black"/>
<path d="M255.065 657.405L226.025 640.645C225.526 640.312 225.11 639.868 224.812 639.347C224.514 638.827 224.34 638.244 224.305 637.645V636.945C224.34 636.346 224.514 635.764 224.812 635.243C225.11 634.722 225.526 634.278 226.025 633.945L295.685 593.745C296.22 593.47 296.813 593.326 297.415 593.326C298.016 593.326 298.61 593.47 299.145 593.745L328.185 610.505C328.687 610.835 329.105 611.278 329.404 611.8C329.702 612.321 329.874 612.905 329.905 613.505V614.225C329.879 614.826 329.709 615.413 329.41 615.935C329.111 616.457 328.691 616.899 328.185 617.225L258.505 657.405C257.972 657.677 257.383 657.819 256.785 657.819C256.187 657.819 255.597 657.677 255.065 657.405Z" fill="#1FB8CF"/>
<path opacity="0.1" d="M224.805 635.242C224.493 635.756 224.321 636.342 224.305 636.942V637.642C224.34 638.241 224.514 638.824 224.812 639.344C225.11 639.865 225.526 640.309 226.025 640.642L255.065 657.402C255.598 657.691 256.198 657.835 256.805 657.822V653.722L224.805 635.242Z" fill="black"/>
<path opacity="0.15" d="M256.822 653.724V657.824C257.421 657.835 258.014 657.69 258.542 657.404L293.382 637.404L328.202 617.284C328.707 616.958 329.128 616.516 329.427 615.994C329.726 615.472 329.896 614.885 329.922 614.284V613.604C329.908 613.003 329.736 612.417 329.422 611.904L256.822 653.724Z" fill="black"/>
<path d="M242.502 598.544L213.462 581.784C212.957 581.455 212.536 581.013 212.234 580.492C211.932 579.97 211.756 579.385 211.722 578.784V578.084C211.756 577.482 211.932 576.898 212.234 576.376C212.536 575.855 212.957 575.412 213.462 575.084L283.122 534.884C283.657 534.608 284.25 534.465 284.852 534.465C285.454 534.465 286.047 534.608 286.582 534.884L315.602 551.644C316.108 551.971 316.53 552.414 316.832 552.935C317.134 553.457 317.309 554.042 317.342 554.644V555.324C317.312 555.927 317.139 556.513 316.836 557.035C316.534 557.557 316.11 557.999 315.602 558.324L245.962 598.544C245.427 598.819 244.834 598.963 244.232 598.963C243.63 598.963 243.037 598.819 242.502 598.544Z" fill="#1FB8CF"/>
<path opacity="0.1" d="M212.226 576.385C211.91 576.897 211.73 577.483 211.706 578.085V578.785C211.741 579.386 211.916 579.971 212.218 580.492C212.521 581.014 212.941 581.456 213.446 581.785L227.966 590.165L242.486 598.545C243.013 598.833 243.606 598.978 244.206 598.965V594.845L212.226 576.385Z" fill="black"/>
<path opacity="0.15" d="M244.215 594.844V598.964C244.822 598.977 245.422 598.832 245.955 598.544L280.775 578.444L315.595 558.324C316.104 557.999 316.527 557.557 316.83 557.035C317.132 556.513 317.306 555.926 317.335 555.324V554.644C317.31 554.039 317.138 553.449 316.835 552.924L244.215 594.844Z" fill="black"/>
<path d="M229.883 539.683L200.863 522.923C200.358 522.594 199.938 522.151 199.635 521.63C199.333 521.109 199.158 520.524 199.123 519.923V519.223C199.158 518.621 199.333 518.036 199.635 517.515C199.938 516.994 200.358 516.551 200.863 516.223L270.503 476.023C271.038 475.747 271.632 475.604 272.233 475.604C272.835 475.604 273.428 475.747 273.963 476.023L303.003 492.783C303.512 493.108 303.935 493.549 304.238 494.071C304.54 494.593 304.714 495.18 304.743 495.783V496.463C304.711 497.064 304.536 497.65 304.233 498.171C303.931 498.693 303.509 499.135 303.003 499.463L233.343 539.683C232.807 539.953 232.214 540.094 231.613 540.094C231.012 540.094 230.42 539.953 229.883 539.683Z" fill="#1FB8CF"/>
<path opacity="0.15" d="M231.64 535.983V540.103C232.24 540.113 232.833 539.968 233.36 539.683L268.2 519.582L303.02 499.462C303.526 499.135 303.948 498.693 304.25 498.171C304.553 497.65 304.727 497.064 304.76 496.462V495.783C304.739 495.174 304.56 494.581 304.24 494.062L231.64 535.983Z" fill="black"/>
<path opacity="0.1" d="M199.623 517.525C199.321 518.043 199.149 518.626 199.123 519.225V519.925C199.158 520.527 199.333 521.112 199.635 521.633C199.938 522.154 200.358 522.597 200.863 522.925L229.883 539.685C230.417 539.974 231.017 540.119 231.623 540.105V535.985L199.623 517.525Z" fill="black"/>
<path d="M217.314 480.826L169.054 452.966C168.551 452.636 168.134 452.193 167.835 451.671C167.536 451.15 167.364 450.566 167.334 449.966V449.286C167.366 448.686 167.538 448.102 167.837 447.581C168.136 447.06 168.552 446.616 169.054 446.286L238.714 406.066C239.249 405.79 239.842 405.646 240.444 405.646C241.046 405.646 241.639 405.79 242.174 406.066L290.514 433.926C291.016 434.255 291.434 434.699 291.733 435.22C292.031 435.741 292.203 436.326 292.234 436.926V437.606C292.199 438.205 292.025 438.787 291.726 439.308C291.428 439.828 291.013 440.273 290.514 440.606L220.774 480.826C220.234 481.085 219.643 481.219 219.044 481.219C218.445 481.219 217.854 481.085 217.314 480.826Z" fill="#1FB8CF"/>
<path opacity="0.15" d="M219.018 477.127V481.227C219.623 481.246 220.222 481.109 220.758 480.827L255.578 460.707L290.498 440.607C290.997 440.274 291.412 439.83 291.711 439.309C292.009 438.789 292.183 438.206 292.218 437.607V436.907C292.202 436.307 292.029 435.721 291.718 435.207L219.018 477.127Z" fill="black"/>
<path opacity="0.1" d="M167.834 447.562C167.531 448.087 167.359 448.677 167.334 449.283V449.962C167.364 450.563 167.536 451.147 167.835 451.668C168.134 452.19 168.551 452.633 169.054 452.962L217.314 480.823C217.843 481.102 218.435 481.24 219.034 481.222V477.122L167.834 447.562Z" fill="black"/>
<path d="M197.607 416.708L108.507 658.968L108.307 659.508C107.965 660.098 107.467 660.582 106.867 660.908C105.604 661.54 104.21 661.869 102.797 661.869C101.385 661.869 99.9912 661.54 98.7275 660.908C98.3248 660.711 97.9685 660.431 97.6823 660.086C97.3961 659.741 97.1865 659.34 97.0675 658.908C97.0475 658.688 97.0475 658.467 97.0675 658.248C97.0917 657.673 97.2064 657.106 97.4075 656.568L186.807 412.748C187.057 412.022 187.45 411.353 187.962 410.782C188.474 410.21 189.095 409.746 189.789 409.417C190.482 409.089 191.235 408.902 192.002 408.869C192.768 408.835 193.534 408.955 194.254 409.222C194.974 409.488 195.633 409.896 196.193 410.421C196.753 410.946 197.202 411.578 197.515 412.279C197.827 412.98 197.996 413.737 198.012 414.504C198.028 415.271 197.891 416.034 197.607 416.748V416.708Z" fill="#37474F"/>
<path d="M195.614 372.487C194.239 373.422 193.152 374.723 192.477 376.243C191.802 377.762 191.566 379.44 191.794 381.087L270.934 751.227C271.013 751.521 271.053 751.823 271.054 752.127C271.074 752.34 271.074 752.554 271.054 752.767C270.937 753.2 270.728 753.603 270.442 753.948C270.156 754.294 269.798 754.573 269.394 754.767C268.136 755.408 266.745 755.742 265.334 755.742C263.922 755.742 262.531 755.408 261.274 754.767C260.578 754.404 260.022 753.821 259.694 753.107L259.594 752.627L180.514 383.507C179.799 379.48 180.305 375.33 181.965 371.592C183.626 367.854 186.366 364.697 189.834 362.527" fill="#455A64"/>
<path d="M217.685 746.348L144.285 745.348L143.645 805.348C143.645 810.788 147.125 816.248 154.245 820.468C168.485 828.888 191.725 829.148 206.145 821.028C213.425 816.928 217.065 811.488 217.065 806.008L217.685 746.348Z" fill="#37474F"/>
<path d="M155.21 730.484C140.79 738.604 140.65 752.024 154.89 760.484C169.13 768.944 192.37 769.164 206.89 761.044C221.41 752.924 221.45 739.504 207.21 731.044C192.97 722.584 169.63 722.364 155.21 730.484Z" fill="#455A64"/>
<path d="M214.498 746.106C214.482 747.082 214.307 748.048 213.978 748.966C212.858 752.406 209.858 755.606 205.178 758.246C197.627 762.116 189.218 764.008 180.738 763.746C172.266 763.843 163.91 761.778 156.458 757.746C152.596 755.792 149.576 752.501 147.958 748.486C147.608 747.498 147.432 746.455 147.438 745.406C147.438 740.926 150.798 736.606 156.738 733.306C164.258 729.389 172.664 727.487 181.138 727.786C189.626 727.661 198.002 729.728 205.458 733.786C211.378 737.266 214.498 741.626 214.498 746.106Z" fill="#263238"/>
<path d="M214.013 748.965C212.893 752.405 209.893 755.605 205.213 758.245C197.662 762.115 189.253 764.007 180.773 763.745C172.301 763.842 163.945 761.777 156.493 757.745C152.631 755.791 149.611 752.5 147.993 748.485C149.657 744.413 152.791 741.115 156.773 739.245C164.298 735.34 172.699 733.432 181.173 733.705C189.658 733.6 198.03 735.665 205.493 739.705C209.354 741.667 212.379 744.954 214.013 748.965Z" fill="#1FB8CF"/>
<path d="M196.645 768.803C198.245 767.883 199.545 768.663 199.525 770.503C199.45 771.513 199.137 772.49 198.612 773.355C198.087 774.221 197.365 774.95 196.505 775.483C194.885 776.403 193.605 775.623 193.625 773.783C193.697 772.773 194.008 771.794 194.533 770.928C195.058 770.062 195.782 769.334 196.645 768.803Z" fill="#263238"/>
<path d="M144.161 755.885C140.161 763.885 132.161 782.765 142.521 790.465C142.961 790.785 143.361 791.065 143.801 791.345V795.185C142.761 794.545 141.681 793.825 140.641 793.065C125.061 781.525 142.641 751.885 143.401 750.645C143.595 750.312 143.91 750.068 144.281 749.965L144.161 755.885Z" fill="#E0E0E0"/>
<path d="M198.01 772.902C197.57 773.822 186.23 795.502 167.57 799.862C165.468 800.371 163.313 800.626 161.15 800.622C154.956 800.507 148.925 798.619 143.77 795.182V791.342C151.47 796.702 159.23 798.542 166.81 796.782C184.03 792.782 195.05 771.622 195.13 771.422C195.227 771.236 195.36 771.07 195.521 770.935C195.682 770.8 195.868 770.698 196.069 770.634C196.27 770.571 196.481 770.548 196.69 770.567C196.9 770.585 197.104 770.645 197.29 770.742C197.484 770.831 197.657 770.959 197.8 771.118C197.942 771.277 198.051 771.464 198.118 771.666C198.186 771.869 198.211 772.083 198.192 772.295C198.174 772.508 198.112 772.715 198.01 772.902Z" fill="#E0E0E0"/>
<path d="M350.361 562.322L342.761 557.942C341.504 557.117 340.459 556.009 339.708 554.707C338.958 553.404 338.524 551.943 338.441 550.442V203.982C338.521 202.48 338.953 201.018 339.704 199.715C340.455 198.412 341.502 197.304 342.761 196.482L594.081 51.382C595.423 50.702 596.907 50.3477 598.411 50.3477C599.916 50.3477 601.399 50.702 602.741 51.382L610.321 55.762C611.584 56.582 612.636 57.6888 613.39 58.9921C614.144 60.2954 614.58 61.7585 614.661 63.262V409.742C614.58 411.246 614.144 412.709 613.39 414.012C612.636 415.315 611.584 416.422 610.321 417.242L359.021 562.322C357.679 563.002 356.196 563.357 354.691 563.357C353.187 563.357 351.703 563.002 350.361 562.322Z" fill="#1FB8CF"/>
<path opacity="0.4" d="M614.6 62.5425C614.3 60.3025 612.48 59.4825 610.32 60.7425L359 205.843C357.726 206.65 356.674 207.764 355.94 209.083L339.7 199.703C340.428 198.379 341.481 197.264 342.76 196.463L594.06 51.3625C595.403 50.6825 596.886 50.3281 598.39 50.3281C599.895 50.3281 601.378 50.6825 602.72 51.3625L610.32 55.7425C611.478 56.5044 612.459 57.5055 613.198 58.6785C613.936 59.8515 614.414 61.1691 614.6 62.5425Z" fill="white"/>
<path opacity="0.1" d="M358.006 562.763C356.767 563.22 355.448 563.417 354.13 563.342C352.812 563.266 351.524 562.919 350.346 562.323L342.766 557.943C341.503 557.123 340.451 556.016 339.697 554.713C338.943 553.41 338.507 551.947 338.426 550.443V203.963C338.485 202.458 338.925 200.992 339.706 199.703L355.946 209.083C355.171 210.373 354.737 211.839 354.686 213.343V559.823C354.686 562.223 356.106 563.343 358.006 562.763Z" fill="black"/>
<path d="M634.283 335.261C633.961 335.115 633.607 335.056 633.256 335.091C632.904 335.127 632.569 335.254 632.283 335.461L622.082 342.221C621.429 342.625 620.642 342.754 619.894 342.582C619.145 342.41 618.494 341.95 618.082 341.301C617.47 340.451 616.802 339.642 616.082 338.881C615.485 338.253 615.062 337.48 614.855 336.638C614.648 335.796 614.664 334.914 614.903 334.081L630.903 323.881L618.903 316.961C618.657 316.822 618.395 316.714 618.122 316.641L610.482 314.941C609.644 314.792 608.781 314.904 608.008 315.262C607.236 315.62 606.591 316.206 606.162 316.941L599.002 330.601C598.018 332.195 596.468 333.36 594.662 333.861L594.222 334.001C594.53 332.962 594.745 331.898 594.862 330.821L582.862 323.861C582.483 323.659 582.048 323.585 581.623 323.65C581.198 323.715 580.805 323.915 580.502 324.221L569.083 333.201C568.394 333.805 567.843 334.549 567.467 335.384C567.091 336.219 566.898 337.125 566.903 338.041L567.583 348.921C567.58 350.822 566.954 352.669 565.802 354.181C563.942 356.421 562.162 358.761 560.502 361.201C559.956 361.918 559.255 362.502 558.452 362.91C557.648 363.319 556.763 363.541 555.862 363.561L548.502 363.201C547.63 363.203 546.775 363.445 546.031 363.9C545.287 364.355 544.682 365.005 544.283 365.781L537.382 381.261C537.086 381.917 537.042 382.66 537.26 383.347C537.478 384.034 537.942 384.616 538.562 384.981L546.703 389.681C546.972 390.347 547.035 391.079 546.882 391.781C546.332 394.223 545.911 396.694 545.622 399.181C545.324 401.067 544.459 402.818 543.143 404.201L533.023 413.501C532.388 414.153 531.906 414.938 531.612 415.8C531.318 416.661 531.219 417.577 531.322 418.481L533.222 429.521C533.251 429.825 533.349 430.118 533.509 430.378C533.668 430.637 533.885 430.858 534.143 431.021L546.143 437.981L546.302 424.161C546.956 423.757 547.743 423.627 548.491 423.8C549.24 423.972 549.891 424.432 550.302 425.081C550.908 425.936 551.577 426.745 552.302 427.501C552.898 428.13 553.322 428.903 553.532 429.744C553.742 430.584 553.732 431.465 553.502 432.301L548.502 446.221C548.275 446.772 548.251 447.387 548.434 447.954C548.617 448.522 548.996 449.006 549.502 449.321L561.502 456.281L564.783 447.281L569.442 435.721C570.419 434.128 571.963 432.963 573.762 432.461C575.361 432.041 576.93 431.52 578.463 430.901C578.805 430.742 579.177 430.659 579.554 430.659C579.931 430.658 580.304 430.74 580.647 430.898C580.989 431.056 581.293 431.286 581.538 431.573C581.782 431.861 581.961 432.198 582.062 432.561L584.643 441.101C584.789 441.655 585.139 442.133 585.622 442.441L597.722 449.401L595.602 436.041L599.302 433.121C599.99 432.518 600.54 431.773 600.913 430.937C601.285 430.102 601.473 429.196 601.463 428.281L600.783 417.401C600.781 415.499 601.407 413.651 602.562 412.141C604.442 409.901 607.262 408.701 608.922 406.281C609.862 404.901 610.923 402.681 612.522 402.761L619.862 403.121C620.735 403.121 621.591 402.88 622.336 402.425C623.08 401.97 623.685 401.318 624.082 400.541L631.002 385.041C631.161 384.684 631.247 384.299 631.255 383.909C631.263 383.519 631.193 383.131 631.05 382.768C630.907 382.405 630.692 382.074 630.42 381.795C630.147 381.516 629.822 381.293 629.463 381.141L623.463 378.601C622.736 378.246 622.147 377.663 621.785 376.94C621.424 376.217 621.31 375.395 621.463 374.601C622.02 372.159 622.447 369.688 622.742 367.201C623.024 365.314 623.884 363.56 625.202 362.181L635.343 352.881C636.26 351.94 636.843 350.725 637.002 349.421L646.202 342.261L634.283 335.261ZM588.283 406.681C575.883 416.401 564.042 413.761 561.802 400.681C559.562 387.601 569.682 371.141 582.062 361.401C594.442 351.661 604.402 352.401 606.642 365.401C608.882 378.401 600.702 396.941 588.322 406.681H588.283Z" fill="#263238"/>
<path d="M543.104 404.223L533.104 413.423C532.323 414.213 531.788 415.214 531.564 416.303L546.424 424.903V424.103C547.078 423.699 547.864 423.569 548.613 423.741C549.362 423.914 550.013 424.374 550.424 425.023L564.764 416.743L543.104 404.223Z" fill="#455A64"/>
<path d="M568.625 376.343C569.762 374.587 570.99 372.891 572.305 371.263L558.025 363.023C557.393 363.298 556.714 363.448 556.025 363.463L548.665 363.103C547.551 363.085 546.469 363.476 545.625 364.203L567.625 376.883L568.625 376.343Z" fill="#455A64"/>
<path d="M646.278 342.222C645.953 342.081 645.597 342.029 645.246 342.072C644.894 342.114 644.56 342.248 644.278 342.462L634.158 349.122C633.503 349.52 632.718 349.647 631.971 349.475C631.224 349.303 630.573 348.846 630.158 348.202C629.557 347.343 628.888 346.534 628.158 345.782C627.559 345.15 627.135 344.374 626.928 343.528C626.721 342.683 626.738 341.798 626.978 340.962L627.938 338.382L632.278 335.522C632.575 335.296 632.928 335.158 633.3 335.122C633.671 335.087 634.044 335.156 634.378 335.322L646.278 342.222Z" fill="#455A64"/>
<path d="M616.401 339.221C616.281 339.101 616.181 338.941 616.061 338.801C615.463 338.173 615.04 337.399 614.833 336.558C614.626 335.716 614.643 334.834 614.881 334.001L630.881 323.801L618.881 316.881C618.635 316.742 618.373 316.634 618.101 316.561L610.461 314.861C609.623 314.712 608.759 314.824 607.986 315.182C607.214 315.539 606.57 316.126 606.141 316.861L598.981 330.521C598.565 331.239 598.007 331.865 597.341 332.361L613.541 341.721L616.401 339.221Z" fill="#455A64"/>
<path d="M567.287 336.101L582.147 344.681L594.387 333.481C594.616 332.58 594.783 331.664 594.887 330.741L582.887 323.781C582.497 323.584 582.053 323.52 581.623 323.6C581.193 323.679 580.801 323.897 580.507 324.221L569.087 333.201C568.219 333.973 567.594 334.98 567.287 336.101Z" fill="#455A64"/>
<path d="M649.16 354.783L647.26 343.743C647.251 343.398 647.143 343.062 646.95 342.775C646.757 342.488 646.486 342.262 646.169 342.124C645.852 341.985 645.503 341.94 645.161 341.993C644.819 342.046 644.5 342.195 644.24 342.423L634.12 349.083C633.466 349.487 632.68 349.617 631.931 349.445C631.182 349.273 630.531 348.812 630.12 348.163C629.519 347.311 628.85 346.508 628.12 345.763C627.524 345.13 627.101 344.354 626.89 343.51C626.68 342.666 626.69 341.782 626.92 340.943L632.08 326.943C632.223 326.593 632.286 326.216 632.266 325.838C632.245 325.46 632.142 325.092 631.962 324.759C631.782 324.426 631.531 324.138 631.226 323.914C630.921 323.69 630.571 323.536 630.2 323.463L622.58 321.763C621.741 321.612 620.877 321.722 620.103 322.08C619.33 322.438 618.686 323.026 618.26 323.763L611.08 337.423C610.103 339.017 608.56 340.181 606.76 340.683C605.162 341.104 603.592 341.625 602.06 342.243C601.718 342.406 601.345 342.491 600.967 342.494C600.589 342.496 600.214 342.415 599.871 342.257C599.527 342.098 599.223 341.866 598.979 341.577C598.735 341.288 598.558 340.949 598.46 340.583L595.88 332.043C595.795 331.714 595.628 331.412 595.394 331.165C595.16 330.918 594.867 330.735 594.543 330.633C594.219 330.531 593.874 330.513 593.541 330.582C593.208 330.65 592.898 330.802 592.64 331.023L581.22 340.003C580.532 340.607 579.983 341.351 579.61 342.187C579.237 343.022 579.049 343.929 579.06 344.843L579.74 355.723C579.737 357.624 579.112 359.472 577.96 360.983C576.08 363.223 574.32 365.563 572.64 368.003C572.099 368.727 571.4 369.316 570.595 369.725C569.79 370.134 568.902 370.353 568 370.363L560.66 370.003C559.796 370.022 558.955 370.275 558.225 370.737C557.495 371.199 556.906 371.851 556.52 372.623L549.5 388.223C549.325 388.585 549.227 388.979 549.21 389.38C549.194 389.781 549.26 390.182 549.404 390.557C549.549 390.931 549.768 391.273 550.049 391.559C550.331 391.846 550.668 392.072 551.04 392.223L557.04 394.763C557.766 395.118 558.356 395.702 558.717 396.425C559.078 397.148 559.192 397.97 559.04 398.763C558.482 401.206 558.055 403.676 557.76 406.163C557.482 408.052 556.622 409.806 555.3 411.183L545.16 420.483C544.525 421.136 544.043 421.921 543.749 422.782C543.455 423.643 543.356 424.559 543.46 425.463L545.46 436.523C545.472 436.867 545.582 437.201 545.777 437.485C545.972 437.769 546.243 437.992 546.559 438.128C546.875 438.264 547.223 438.308 547.563 438.254C547.903 438.2 548.221 438.051 548.48 437.823L558.6 431.163C559.255 430.765 560.04 430.638 560.787 430.81C561.534 430.982 562.185 431.439 562.6 432.083C563.212 432.933 563.88 433.742 564.6 434.503C565.199 435.135 565.623 435.911 565.83 436.757C566.037 437.602 566.02 438.487 565.78 439.323L560.62 453.323C560.477 453.674 560.413 454.051 560.434 454.429C560.454 454.806 560.558 455.175 560.738 455.508C560.917 455.84 561.169 456.129 561.473 456.353C561.778 456.577 562.128 456.731 562.5 456.803L570.14 458.503C570.978 458.652 571.842 458.54 572.614 458.182C573.387 457.825 574.031 457.239 574.46 456.503L581.62 442.843C582.609 441.253 584.157 440.09 585.96 439.583C587.56 439.172 589.131 438.651 590.66 438.023C591.002 437.864 591.374 437.782 591.751 437.781C592.129 437.781 592.501 437.862 592.844 438.02C593.186 438.178 593.49 438.409 593.735 438.696C593.979 438.983 594.158 439.32 594.26 439.683L596.84 448.223C596.926 448.549 597.093 448.848 597.325 449.092C597.558 449.336 597.848 449.517 598.169 449.619C598.49 449.72 598.832 449.739 599.163 449.674C599.493 449.608 599.802 449.46 600.06 449.243L611.48 440.263C612.167 439.659 612.717 438.914 613.093 438.079C613.469 437.244 613.662 436.339 613.66 435.423L612.98 424.543C612.972 422.641 613.598 420.79 614.76 419.283C616.62 417.043 618.4 414.703 620.06 412.263C620.606 411.547 621.307 410.963 622.11 410.554C622.914 410.145 623.799 409.923 624.7 409.903L632.06 410.263C632.932 410.261 633.787 410.02 634.531 409.565C635.275 409.11 635.88 408.459 636.28 407.683L643.18 392.203C643.354 391.842 643.453 391.448 643.469 391.047C643.485 390.645 643.419 390.245 643.275 389.87C643.131 389.495 642.911 389.154 642.63 388.867C642.349 388.581 642.012 388.355 641.64 388.203L635.64 385.663C634.909 385.314 634.315 384.731 633.953 384.007C633.591 383.282 633.48 382.458 633.64 381.663C634.191 379.221 634.611 376.751 634.9 374.263C635.194 372.382 636.06 370.636 637.38 369.263L647.5 359.943C648.153 359.268 648.642 358.451 648.93 357.556C649.218 356.662 649.296 355.713 649.16 354.783ZM600.36 413.623C587.98 423.363 576.12 420.703 573.88 407.623C571.64 394.543 579.88 376.163 592.24 366.423C604.6 356.683 616.48 359.343 618.72 372.423C620.96 385.503 612.74 403.883 600.36 413.623Z" fill="#37474F"/>
<path d="M577.092 228.363L565.252 221.543C564.968 221.396 564.653 221.319 564.332 221.319C564.012 221.319 563.697 221.396 563.412 221.543L542.012 231.183C541.672 231.346 541.3 231.431 540.923 231.433C540.546 231.435 540.174 231.354 539.832 231.196C539.49 231.037 539.187 230.805 538.945 230.516C538.703 230.227 538.528 229.888 538.432 229.523C537.281 225.81 535.682 222.251 533.672 218.923C533.235 218.139 532.979 217.266 532.923 216.369C532.868 215.473 533.014 214.575 533.352 213.743L547.612 184.983C547.96 184.249 548.022 183.412 547.785 182.635C547.549 181.858 547.03 181.198 546.332 180.783L530.872 171.863C530.169 171.461 529.34 171.338 528.551 171.519C527.761 171.701 527.069 172.174 526.612 172.843L508.812 199.623C508.26 200.335 507.554 200.913 506.747 201.315C505.94 201.716 505.053 201.931 504.152 201.943C502.082 201.889 500.01 201.982 497.952 202.223V182.683L486.072 175.823C485.753 175.674 485.399 175.612 485.048 175.644C484.697 175.675 484.36 175.799 484.072 176.003L460.072 189.883C459.303 190.388 458.648 191.05 458.152 191.826C457.656 192.601 457.329 193.473 457.192 194.383L454.792 221.123C454.52 223.016 453.643 224.77 452.292 226.123C447.528 230.532 443.064 235.256 438.932 240.263C438.349 240.905 437.598 241.371 436.764 241.608C435.93 241.845 435.046 241.843 434.212 241.603L418.772 236.203C417.975 235.955 417.117 235.979 416.335 236.273C415.552 236.566 414.89 237.111 414.452 237.823L396.772 268.423C396.379 269.162 396.242 270.011 396.383 270.836C396.524 271.662 396.936 272.417 397.552 272.983L409.932 283.663C410.563 284.261 411.011 285.026 411.224 285.869C411.436 286.712 411.405 287.598 411.132 288.423C408.856 294.496 406.998 300.717 405.572 307.043C405.078 308.889 403.997 310.524 402.492 311.703L380.492 327.163C379.77 327.734 379.177 328.452 378.753 329.269C378.329 330.086 378.083 330.984 378.032 331.903V359.663C378.009 360.009 378.076 360.355 378.227 360.667C378.378 360.979 378.607 361.246 378.892 361.443L390.732 368.283L408.312 359.943C408.973 361.315 409.707 362.651 410.512 363.943C410.95 364.727 411.206 365.6 411.261 366.497C411.317 367.393 411.17 368.291 410.832 369.123L396.572 397.883C396.219 398.611 396.152 399.445 396.386 400.219C396.619 400.994 397.136 401.652 397.832 402.063L413.312 411.003C414.018 411.404 414.848 411.523 415.638 411.338C416.428 411.152 417.119 410.676 417.572 410.003L435.352 383.283C435.897 382.567 436.598 381.986 437.403 381.584C438.207 381.182 439.093 380.969 439.992 380.963C443.885 381.047 447.773 380.657 451.572 379.803C451.934 379.701 452.313 379.681 452.683 379.744C453.053 379.808 453.405 379.953 453.711 380.17C454.018 380.386 454.273 380.669 454.456 380.996C454.64 381.324 454.748 381.688 454.772 382.063L457.132 405.403C457.139 405.731 457.227 406.052 457.388 406.338C457.548 406.624 457.776 406.866 458.052 407.043L469.872 413.843L484.072 393.003C484.839 392.497 485.49 391.834 485.983 391.059C486.476 390.283 486.8 389.412 486.932 388.503L489.332 361.763C489.483 360.896 489.842 360.079 490.378 359.383C490.915 358.686 491.613 358.13 492.412 357.763C499.466 354.715 505.823 350.257 511.092 344.663C511.703 344.043 512.468 343.597 513.308 343.372C514.148 343.147 515.034 343.151 515.872 343.383L525.352 346.723C526.151 346.978 527.011 346.959 527.797 346.669C528.584 346.38 529.251 345.835 529.692 345.123L547.352 314.523C547.748 313.786 547.888 312.939 547.751 312.113C547.613 311.288 547.206 310.532 546.592 309.963L538.492 303.003C537.867 302.391 537.415 301.625 537.183 300.782C536.952 299.938 536.948 299.048 537.172 298.203C538.928 290.947 539.668 283.483 539.372 276.023C539.389 275.114 539.604 274.219 540.001 273.4C540.398 272.582 540.968 271.859 541.672 271.283L563.672 255.823C564.389 255.253 564.978 254.538 565.398 253.725C565.819 252.911 566.062 252.018 566.112 251.103L576.612 238.523L577.092 228.363ZM472.112 338.363C449.672 351.303 435.732 342.123 435.732 316.223C435.732 290.323 454.272 258.583 476.692 245.643C499.112 232.703 512.692 242.103 512.692 268.003C512.692 293.903 494.492 325.443 472.112 338.403V338.363Z" fill="#263238"/>
<path d="M542.874 194.524L547.594 185.024C547.942 184.29 548.004 183.453 547.767 182.676C547.53 181.899 547.012 181.239 546.314 180.824L530.854 171.904C530.151 171.502 529.322 171.379 528.532 171.56C527.743 171.742 527.051 172.215 526.594 172.884L508.814 199.624C508.487 200.067 508.088 200.453 507.634 200.764L527.534 212.244L542.874 194.524Z" fill="#455A64"/>
<path d="M404.228 309.902C403.761 310.589 403.187 311.197 402.528 311.702L380.528 327.162C379.943 327.62 379.448 328.183 379.068 328.822L392.488 336.562L421.628 319.982L404.228 309.902Z" fill="#455A64"/>
<path d="M417.563 236.023C416.942 236.047 416.335 236.223 415.798 236.537C415.26 236.851 414.809 237.293 414.483 237.823L396.803 268.423C396.433 269.108 396.293 269.893 396.403 270.663L411.643 279.463L435.843 246.723L417.563 236.023Z" fill="#455A64"/>
<path d="M457.701 192.782L476.541 203.662L497.961 191.302V182.682L486.081 175.822C485.762 175.673 485.408 175.611 485.057 175.643C484.706 175.674 484.369 175.798 484.081 176.002L460.081 189.882C459.017 190.59 458.188 191.6 457.701 192.782Z" fill="#455A64"/>
<path d="M577.942 257.923V230.223C577.997 229.884 577.952 229.536 577.813 229.221C577.674 228.907 577.447 228.639 577.16 228.451C576.872 228.263 576.536 228.162 576.192 228.16C575.848 228.159 575.511 228.257 575.222 228.443L553.822 238.103C553.484 238.266 553.113 238.351 552.737 238.353C552.362 238.355 551.99 238.274 551.65 238.115C551.309 237.957 551.008 237.724 550.768 237.435C550.528 237.146 550.355 236.807 550.262 236.443C549.095 232.733 547.491 229.174 545.482 225.843C545.045 225.059 544.789 224.186 544.733 223.29C544.678 222.393 544.824 221.495 545.162 220.663L559.422 191.903C559.772 191.172 559.837 190.336 559.604 189.56C559.371 188.783 558.857 188.121 558.162 187.703L542.682 178.763C541.976 178.367 541.147 178.25 540.358 178.435C539.57 178.62 538.879 179.094 538.422 179.763L520.642 206.503C520.095 207.219 519.389 207.799 518.581 208.198C517.773 208.597 516.884 208.804 515.982 208.803C512.096 208.737 508.215 209.133 504.422 209.983C504.06 210.085 503.679 210.105 503.308 210.042C502.937 209.978 502.584 209.833 502.276 209.617C501.968 209.4 501.712 209.118 501.526 208.791C501.34 208.463 501.23 208.099 501.202 207.723L498.862 184.223C498.873 183.882 498.786 183.545 498.613 183.251C498.439 182.957 498.185 182.719 497.881 182.564C497.577 182.409 497.236 182.343 496.896 182.375C496.556 182.407 496.232 182.534 495.962 182.743L471.962 196.623C471.193 197.124 470.539 197.782 470.042 198.555C469.546 199.327 469.219 200.195 469.082 201.103L466.682 227.863C466.406 229.755 465.53 231.507 464.182 232.863C459.418 237.272 454.954 241.996 450.822 247.003C450.24 247.646 449.488 248.111 448.653 248.344C447.818 248.578 446.933 248.57 446.102 248.323L430.662 242.943C429.867 242.693 429.011 242.714 428.229 243.004C427.447 243.294 426.783 243.835 426.342 244.543L408.662 275.163C408.269 275.902 408.132 276.751 408.273 277.576C408.414 278.402 408.826 279.157 409.442 279.723L421.822 290.383C422.453 290.985 422.901 291.754 423.113 292.6C423.325 293.446 423.294 294.334 423.022 295.163C420.746 301.236 418.888 307.457 417.462 313.783C416.968 315.629 415.887 317.265 414.382 318.443L392.382 333.903C391.66 334.474 391.067 335.192 390.643 336.009C390.219 336.826 389.973 337.724 389.922 338.643V366.403C389.878 366.742 389.931 367.086 390.074 367.395C390.218 367.705 390.447 367.968 390.734 368.152C391.021 368.337 391.355 368.436 391.697 368.438C392.038 368.44 392.373 368.344 392.662 368.163L414.062 358.523C414.4 358.36 414.769 358.274 415.143 358.271C415.518 358.267 415.889 358.347 416.229 358.504C416.569 358.66 416.871 358.891 417.111 359.177C417.352 359.464 417.527 359.801 417.622 360.163C418.777 363.885 420.382 367.451 422.402 370.783C422.84 371.568 423.096 372.44 423.151 373.337C423.207 374.233 423.06 375.131 422.722 375.963L408.502 404.803C408.149 405.531 408.082 406.365 408.316 407.139C408.549 407.914 409.066 408.572 409.762 408.983L425.242 417.923C425.948 418.324 426.778 418.443 427.568 418.258C428.358 418.073 429.049 417.596 429.502 416.923L447.242 390.223C447.793 389.514 448.496 388.937 449.299 388.536C450.102 388.134 450.985 387.918 451.882 387.903C455.776 387.99 459.666 387.593 463.462 386.723C463.825 386.625 464.204 386.608 464.574 386.673C464.944 386.738 465.294 386.883 465.602 387.099C465.909 387.315 466.165 387.595 466.352 387.921C466.538 388.246 466.651 388.609 466.682 388.983L469.022 412.343C469.008 412.686 469.091 413.026 469.264 413.323C469.436 413.619 469.689 413.861 469.994 414.018C470.298 414.176 470.642 414.243 470.984 414.212C471.325 414.181 471.651 414.053 471.922 413.843L495.922 399.843C496.693 399.346 497.347 398.688 497.841 397.915C498.335 397.142 498.656 396.272 498.782 395.363L501.202 368.603C501.478 366.717 502.355 364.971 503.702 363.623C508.461 359.214 512.917 354.49 517.042 349.483C517.622 348.837 518.373 348.368 519.209 348.131C520.044 347.894 520.929 347.898 521.762 348.143L537.202 353.523C538.001 353.778 538.861 353.759 539.647 353.469C540.434 353.18 541.101 352.635 541.542 351.923L559.222 321.303C559.614 320.567 559.75 319.722 559.609 318.9C559.468 318.078 559.057 317.326 558.442 316.763L546.102 306.223C545.471 305.625 545.023 304.86 544.811 304.017C544.598 303.175 544.63 302.289 544.902 301.463C547.163 295.379 549.021 289.152 550.462 282.823C550.962 280.98 552.042 279.346 553.542 278.163L575.542 262.703C576.259 262.123 576.845 261.397 577.258 260.572C577.672 259.748 577.906 258.845 577.942 257.923ZM483.942 345.223C461.502 358.163 443.322 347.663 443.322 321.763C443.322 295.863 461.502 264.363 483.942 251.423C506.382 238.483 524.502 248.963 524.502 274.863C524.502 300.763 506.362 332.223 483.942 345.223Z" fill="#37474F"/>
<path d="M577.109 228.364C576.817 228.206 576.491 228.124 576.159 228.124C575.828 228.124 575.501 228.206 575.209 228.364L553.809 238.004C553.472 238.167 553.103 238.253 552.728 238.256C552.353 238.26 551.983 238.18 551.643 238.023C551.302 237.867 551.001 237.636 550.76 237.35C550.519 237.063 550.345 236.726 550.249 236.364C549.452 233.772 548.428 231.256 547.189 228.844L563.389 221.544C563.676 221.393 563.995 221.314 564.319 221.314C564.643 221.314 564.962 221.393 565.249 221.544L577.109 228.364Z" fill="#455A64"/>
<path d="M745.601 749.561V747.281C744.701 749.961 740.541 761.441 734.221 767.281C729.201 771.861 722.361 777.161 720.601 782.261C718.841 787.361 730.141 789.341 734.821 788.521C740.281 787.561 747.321 784.521 751.161 779.741C753.861 776.441 755.581 772.501 757.501 769.901C759.421 767.301 763.881 764.381 764.921 761.361C765.501 759.701 764.821 756.081 764.001 753.001C763.181 749.921 762.481 747.001 761.501 747.361V749.101C759.225 750.893 756.398 751.84 753.501 751.781C751.221 751.801 745.581 751.341 745.601 749.561Z" fill="#263238"/>
<path d="M729.663 771.239C731.223 769.839 732.783 768.479 734.203 767.239C738.623 763.239 741.983 756.399 743.903 751.739C745.006 749.082 745.576 746.235 745.583 743.359V734.219H761.483V748.979V749.379C760.723 752.679 753.483 761.479 749.283 767.219C746.483 771.059 741.283 775.959 734.883 776.799C728.823 777.659 725.763 775.779 729.663 771.239Z" fill="#FFA8A7"/>
<path d="M683.508 733.882V731.602C682.608 734.262 678.448 745.762 672.128 751.602C667.108 756.182 660.268 761.462 658.528 766.562C656.788 771.662 668.048 773.662 672.748 772.842C678.188 771.862 685.248 768.842 689.068 764.062C691.768 760.742 693.488 756.822 695.428 754.202C697.368 751.582 701.788 748.702 702.828 745.682C703.408 744.022 702.728 740.382 701.928 737.322C701.128 734.262 700.388 731.422 699.428 731.682V733.422C697.147 735.205 694.323 736.151 691.428 736.102C689.128 736.102 683.488 735.642 683.508 733.882Z" fill="#263238"/>
<path d="M667.603 755.544C669.163 754.164 670.723 752.804 672.143 751.544C676.563 747.544 679.923 740.704 681.843 736.044C682.957 733.39 683.528 730.541 683.523 727.664V718.604H699.523V733.364V733.763C698.743 737.063 691.523 745.864 687.303 751.604C684.523 755.444 679.303 760.324 672.923 761.184C666.543 762.044 663.703 760.084 667.603 755.544Z" fill="#FFA8A7"/>
<path d="M758.342 502.221C770.682 529.181 757.902 624.101 757.902 624.101C758.262 628.481 763.262 637.081 765.142 656.321C767.342 679.061 761.682 736.161 761.682 736.161C759.267 737.556 756.548 738.343 753.761 738.454C750.974 738.566 748.202 737.998 745.682 736.801C745.682 736.801 730.502 650.801 727.682 628.201C725.182 608.461 720.402 565.081 720.402 565.081L706.842 628.101C708.824 634.454 710.262 640.965 711.142 647.561C712.422 660.861 699.542 722.781 699.542 722.781C699.542 722.781 694.042 724.781 683.542 723.261C683.542 723.261 678.982 641.101 677.782 625.081C675.782 598.161 682.902 514.221 687.782 498.281L758.342 502.221Z" fill="#37474F"/>
<path d="M720.289 565.08L716.289 540.04C716.289 540.04 699.349 536.54 691.669 529.32C696.967 535.531 703.894 540.137 711.669 542.62L716.149 561.9L708.329 620.22L720.289 565.08Z" fill="#263238"/>
<path d="M694.208 485.241C703.548 454.161 715.449 407.882 710.969 407.882C706.489 407.882 699.568 407.462 694.508 412.542C684.508 422.542 682.728 441.102 680.628 451.702C678.528 462.302 677.048 470.641 673.708 486.341C671.188 498.341 668.088 512.681 663.588 521.881C662.748 523.527 661.32 524.797 659.588 525.441C655.068 527.281 652.988 529.622 649.368 532.302C646.528 534.302 644.368 534.661 644.548 535.521C644.858 536.48 645.518 537.287 646.397 537.78C647.276 538.273 648.309 538.417 649.289 538.182C651.473 537.734 653.596 537.022 655.608 536.062C653.563 539.5 650.976 542.586 647.948 545.201C641.028 551.201 639.948 555.462 651.528 557.562C658.748 558.882 665.288 555.421 673.528 540.441C676.655 534.983 679.389 529.309 681.708 523.461C687.228 508.221 691.388 494.641 694.208 485.241Z" fill="#FFA8A7"/>
<path d="M736.498 408.623C752.318 409.703 753.418 417.343 757.378 425.703C760.284 432.136 760.557 439.451 758.138 446.083L747.098 477.963C747.098 477.963 752.278 490.443 758.258 502.223C730.598 517.663 696.058 509.563 687.738 498.223C687.398 495.843 689.518 477.163 690.838 464.963C685.978 452.723 684.678 444.963 686.738 436.963C690.558 421.963 705.378 407.363 711.918 407.903L736.498 408.623Z" fill="#1FB8CF"/>
<path d="M721.374 395.5H727.514C736.084 395.495 744.302 392.088 750.362 386.028C756.422 379.968 759.829 371.75 759.834 363.18C759.834 354.559 756.411 346.29 750.316 340.192C744.222 334.094 735.956 330.665 727.334 330.66H721.534C712.913 330.665 704.646 334.094 698.552 340.192C692.458 346.29 689.034 354.559 689.034 363.18C689.039 371.754 692.449 379.974 698.513 386.035C704.578 392.096 712.801 395.5 721.374 395.5Z" fill="#263238"/>
<path d="M777.141 412.539C772.075 412.539 767.217 410.527 763.635 406.945C760.053 403.363 758.041 398.505 758.041 393.439V352.539C763.106 352.539 767.964 354.551 771.546 358.133C775.128 361.715 777.141 366.573 777.141 371.639V412.539Z" fill="#263238"/>
<path d="M761.55 345.281L756.75 352.981C757.239 353.321 757.792 353.558 758.376 353.678C758.959 353.797 759.561 353.797 760.144 353.678C760.728 353.558 761.281 353.321 761.77 352.981C762.259 352.642 762.674 352.206 762.99 351.701C763.623 350.652 763.826 349.398 763.558 348.202C763.29 347.007 762.571 345.96 761.55 345.281Z" fill="#263238"/>
<path d="M700.667 344.982C696.927 347.202 692.307 356.602 692.667 376.322C693.067 393.022 698.467 397.142 701.187 398.322C703.907 399.502 709.187 398.782 714.267 397.942V407.942C714.267 407.942 707.207 416.122 707.647 420.722C708.087 425.322 717.827 426.422 724.427 421.922C728.703 418.843 732.372 414.998 735.247 410.582V386.382C735.783 387.041 736.444 387.586 737.193 387.986C737.941 388.386 738.762 388.633 739.607 388.714C740.452 388.794 741.304 388.705 742.115 388.452C742.925 388.2 743.677 387.788 744.327 387.242C749.947 383.502 750.167 374.262 746.887 370.942C743.607 367.622 736.567 368.662 735.247 373.262C735.247 373.262 727.107 373.542 716.287 367.602C712.092 365.32 708.493 362.084 705.78 358.155C703.067 354.225 701.315 349.713 700.667 344.982Z" fill="#FFA8A7"/>
<path d="M713.298 372.219C713.279 372.5 713.315 372.783 713.406 373.05C713.496 373.316 713.638 373.563 713.824 373.775C714.01 373.987 714.236 374.16 714.489 374.284C714.741 374.408 715.016 374.481 715.298 374.499C715.853 374.511 716.392 374.311 716.804 373.939C717.217 373.568 717.472 373.053 717.518 372.499C717.544 371.942 717.348 371.398 716.973 370.985C716.598 370.572 716.075 370.326 715.518 370.299C714.961 370.273 714.416 370.469 714.003 370.844C713.591 371.219 713.344 371.742 713.318 372.299L713.298 372.219Z" fill="#263238"/>
<path d="M710.853 386.221L705.973 387.781C706.06 388.108 706.212 388.415 706.422 388.682C706.631 388.949 706.892 389.171 707.189 389.333C707.487 389.496 707.814 389.597 708.152 389.629C708.489 389.661 708.83 389.624 709.153 389.521C709.807 389.296 710.35 388.828 710.667 388.213C710.984 387.598 711.05 386.884 710.853 386.221Z" fill="#F28F8F"/>
<path d="M696.043 365.662L700.303 362.722C700.125 362.434 699.89 362.186 699.612 361.992C699.335 361.799 699.02 361.664 698.689 361.597C698.357 361.529 698.015 361.53 697.684 361.6C697.353 361.67 697.039 361.806 696.763 362.002C696.195 362.402 695.804 363.006 695.669 363.687C695.535 364.369 695.669 365.076 696.043 365.662Z" fill="#263238"/>
<path d="M697.029 370.6C697.002 371.157 697.198 371.702 697.573 372.114C697.948 372.527 698.472 372.773 699.029 372.8C699.586 372.826 700.13 372.631 700.543 372.256C700.956 371.881 701.202 371.357 701.229 370.8C701.25 370.518 701.216 370.235 701.126 369.967C701.037 369.699 700.895 369.451 700.709 369.239C700.522 369.026 700.295 368.853 700.041 368.73C699.787 368.607 699.511 368.535 699.229 368.52C698.663 368.509 698.115 368.721 697.703 369.11C697.292 369.499 697.05 370.034 697.029 370.6Z" fill="#263238"/>
<path d="M707.291 369.4L706.971 382.04L700.311 379.98L707.291 369.4Z" fill="#F28F8F"/>
<path d="M714.341 397.961C719.701 397.241 730.761 394.081 732.481 389.701C731.8 391.92 730.444 393.871 728.601 395.281C725.301 398.121 714.341 401.281 714.341 401.281V397.961Z" fill="#F28F8F"/>
<path opacity="0.1" d="M729.493 505.218C731.66 504.721 733.706 503.796 735.511 502.498C737.316 501.2 738.843 499.554 740.004 497.658C741.164 495.762 741.934 493.653 742.269 491.455C742.604 489.257 742.496 487.014 741.953 484.858C741.853 484.518 741.753 484.218 741.673 483.978C741.294 482.82 740.534 481.824 739.517 481.152C738.501 480.481 737.287 480.172 736.073 480.278C737.846 479.097 739.368 477.577 740.552 475.806C741.736 474.035 742.559 472.048 742.973 469.958L746.333 453.098C746.333 453.098 740.093 433.298 740.733 426.498L756.613 427.418L758.613 428.858C760.298 434.499 760.144 440.53 758.173 446.078L747.133 477.958C747.133 477.958 752.313 490.438 758.293 502.218C749.3 507.069 739.371 509.936 729.176 510.626C718.982 511.316 708.757 509.813 699.193 506.218C709.265 507.808 719.547 507.468 729.493 505.218Z" fill="black"/>
<path d="M752.353 489.78C746.513 491.34 728.733 493.44 727.413 480.96C726.734 471.019 726.734 461.042 727.413 451.1C728.222 436.355 733.534 422.212 742.633 410.58L743.353 409.7C743.353 409.7 740.773 407.6 735.353 408.58C727.72 416.34 722.318 426.012 719.713 436.58C711.713 435.42 701.713 434.58 695.033 434.06C698.144 423.35 705.01 414.12 714.373 408.06C712.108 407.185 709.606 407.142 707.313 407.94C697.806 413.72 690.834 422.878 687.793 433.58C681.433 451.2 681.673 516.86 681.793 540.18L692.773 522.7H762.773C761.893 497.54 752.353 489.78 752.353 489.78Z" fill="#37474F"/>
<path d="M786.516 472.717C786.516 472.717 779.056 456.717 768.676 433.137C761.176 416.057 759.516 412.197 747.576 410.357L743.376 409.697C737.716 428.277 741.616 436.677 749.056 449.397L763.776 477.917C769.676 476.757 786.716 474.497 786.516 472.717Z" fill="#FFA8A7"/>
<path d="M763.835 477.92C768.195 486.7 771.835 492.14 777.235 493.56C782.635 494.98 826.335 494.48 826.335 494.48V477.92L784.655 471.58L763.835 477.92Z" fill="#FFA8A7"/>
<path d="M851.368 659.738H782.508V793.918C782.188 799.238 785.508 804.618 792.508 808.678C805.968 816.458 827.788 816.458 841.248 808.678C847.988 804.798 851.348 799.698 851.348 794.678L851.368 659.738Z" fill="#1FB8CF"/>
<path d="M844.126 647.541C836.506 642.561 841.246 630.441 841.246 630.441H792.506C792.506 630.441 797.106 642.441 789.626 647.541C779.106 655.361 780.046 666.621 792.466 673.801C805.926 681.581 827.746 681.581 841.206 673.801C853.686 666.621 854.626 655.361 844.126 647.541Z" fill="#1FB8CF"/>
<path opacity="0.05" d="M844.126 647.541C836.506 642.561 841.246 630.441 841.246 630.441H792.506C792.506 630.441 797.106 642.441 789.626 647.541C779.106 655.361 780.046 666.621 792.466 673.801C805.926 681.581 827.746 681.581 841.206 673.801C853.686 666.621 854.626 655.361 844.126 647.541Z" fill="black"/>
<path opacity="0.05" d="M839.917 636.422C840.119 634.375 840.569 632.36 841.257 630.422H792.497C793.174 632.361 793.611 634.376 793.797 636.422C806.897 643.222 826.817 643.222 839.917 636.422Z" fill="black"/>
<path d="M851.368 607H847.368C845.612 605.144 843.59 603.56 841.368 602.3C827.908 594.54 806.088 594.54 792.628 602.3C790.405 603.56 788.383 605.144 786.628 607H782.628V616.38C782.628 621.48 785.988 626.56 792.728 630.38C806.188 638.16 828.008 638.16 841.468 630.38C848.208 626.5 851.568 621.42 851.568 616.38L851.368 607Z" fill="#1FB8CF"/>
<path d="M792.512 621.061C805.972 628.841 827.792 628.841 841.252 621.061C854.712 613.281 854.712 600.701 841.252 592.921C827.792 585.141 805.972 585.161 792.512 592.921C779.052 600.681 779.072 613.301 792.512 621.061Z" fill="#1FB8CF"/>
<path opacity="0.4" d="M792.512 621.061C805.972 628.841 827.792 628.841 841.252 621.061C854.712 613.281 854.712 600.701 841.252 592.921C827.792 585.141 805.972 585.161 792.512 592.921C779.052 600.681 779.072 613.301 792.512 621.061Z" fill="white"/>
<path opacity="0.2" d="M816.938 799.882C815.155 799.882 813.446 799.174 812.186 797.914C810.926 796.654 810.218 794.944 810.218 793.162V697.302C810.218 695.52 810.926 693.811 812.186 692.55C813.446 691.29 815.155 690.582 816.938 690.582C818.717 690.587 820.421 691.298 821.677 692.557C822.932 693.817 823.638 695.523 823.638 697.302V793.162C823.638 794.941 822.932 796.647 821.677 797.907C820.421 799.166 818.717 799.877 816.938 799.882Z" fill="black"/>
<path opacity="0.2" d="M839.874 795.821C836.654 797.001 834.054 795.341 834.054 792.121V694.481C834.162 692.732 834.766 691.05 835.797 689.633C836.828 688.215 838.243 687.122 839.874 686.481C843.094 685.321 845.694 686.961 845.694 690.181V787.841C845.586 789.588 844.98 791.267 843.949 792.681C842.918 794.095 841.504 795.184 839.874 795.821Z" fill="black"/>
<path opacity="0.2" d="M793.961 795.821C797.181 797.001 799.781 795.341 799.781 792.121V694.481C799.674 692.732 799.069 691.05 798.038 689.633C797.007 688.215 795.592 687.122 793.961 686.481C790.741 685.321 788.141 686.961 788.141 690.181V787.841C788.25 789.588 788.855 791.267 789.886 792.681C790.918 794.095 792.331 795.184 793.961 795.821Z" fill="black"/>
<path d="M826.31 365.636L812.31 357.516L803.43 399.296C803.43 399.296 812.31 413.796 812.31 423.176V601.416L821.61 612.296L826.39 609.536V431.316C826.39 421.936 835.25 417.676 835.25 417.676L826.31 365.636Z" fill="#E0E0E0"/>
<path d="M821.547 368.4L807.547 360.26L798.667 402.04C798.667 402.04 807.547 416.56 807.547 426.04V604.22L821.547 612.36V434.06C821.547 424.68 830.427 420.42 830.427 420.42L821.547 368.4Z" fill="#EBEBEB"/>
<path d="M807.489 360.256L812.249 357.516L826.329 365.636L821.549 368.396L807.489 360.256Z" fill="#FAFAFA"/>
<path d="M826.329 365.641L821.549 368.401L830.429 420.421L835.189 417.681L826.329 365.641Z" fill="#F5F5F5"/>
<path d="M826.334 464.782C827.054 461.642 832.014 459.882 831.514 465.122C831.014 470.362 833.514 474.022 834.254 476.462C835.754 481.602 835.414 491.302 833.394 493.222C832.353 494.443 831.054 495.419 829.592 496.079C828.129 496.74 826.538 497.068 824.934 497.042C821.04 496.836 817.328 495.329 814.394 492.762C811.154 490.242 807.694 475.762 815.214 477.802C826.394 480.862 826.334 472.822 826.334 472.822V464.782Z" fill="#FFA8A7"/>
<path d="M458.634 512.221C466.494 513.801 471.154 519.581 480.634 534.221C490.114 548.861 504.794 574.221 504.794 574.221L541.554 588.221L539.974 604.761C539.974 604.761 499.874 597.641 494.374 593.561C488.874 589.481 467.654 558.721 467.654 558.721L458.634 512.221Z" fill="#FFA8A7"/>
<path d="M452.065 509.24C460.225 510.68 468.305 512.66 473.325 520.44C478.345 528.22 496.625 557.94 496.625 557.94C496.625 557.94 489.965 573.58 477.805 575.94L460.325 550.76L452.065 509.24Z" fill="#E6E6E6"/>
<path d="M422.114 509.9C419.314 510.58 416.494 510.76 414.014 511.26C401.874 513.7 399.634 520 399.334 534.68C398.854 559.22 399.334 616.02 399.334 616.02C410.154 623.88 450.114 628.7 472.874 612.02C472.874 612.02 471.714 546.68 471.714 535.1C471.714 523.52 465.294 509.62 447.534 508.58L422.114 509.9Z" fill="#F5F5F5"/>
<path d="M396.489 843.117H412.189V816.237H396.489V843.117Z" fill="#FFA8A7"/>
<path d="M460.722 822.758L476.402 823.298L477.202 794.858L460.722 794.318V822.758Z" fill="#FFA8A7"/>
<path d="M475.112 612.081L472.292 548.221L422.892 556.221C423.016 566.316 422.428 576.408 421.132 586.421C420.212 594.301 412.652 605.041 399.252 608.581C398.677 618.898 398.637 629.239 399.132 639.561C399.372 647.001 395.872 729.261 395.872 729.261C395.512 733.581 391.352 741.261 391.032 756.781C390.572 779.321 395.812 829.641 395.812 829.641C398.523 830.974 401.494 831.696 404.514 831.755C407.535 831.814 410.532 831.208 413.292 829.981C413.292 829.981 423.852 757.661 426.672 735.361C429.112 715.901 439.372 661.141 439.372 661.141L451.372 726.961C449.531 735.145 448.857 743.548 449.372 751.921C450.092 762.221 459.652 813.921 459.652 813.921C462.391 815.463 465.435 816.385 468.569 816.624C471.703 816.862 474.852 816.411 477.792 815.301C477.792 815.301 478.712 734.181 478.912 724.701C479.172 713.961 475.112 612.081 475.112 612.081Z" fill="#37474F"/>
<path d="M472.293 548.219C471.773 535.599 470.013 523.939 459.133 513.019C456.158 510.077 452.137 508.437 447.953 508.459H445.613C445.613 508.459 456.533 517.119 460.813 529.699C463.164 537.658 464.33 545.92 464.273 554.219L472.293 548.219Z" fill="#37474F"/>
<path d="M412.191 835.359V833.119C413.031 833.119 413.551 833.939 413.871 835.959C414.111 837.399 414.311 838.499 414.791 840.399C415.481 843.137 416.398 845.813 417.531 848.399C419.751 853.879 421.531 855.899 426.691 862.299C428.44 864.062 430.07 865.94 431.571 867.919C432.531 869.599 432.851 874.299 431.251 875.379C425.251 879.379 416.311 879.379 409.951 877.579C407.576 876.917 405.441 875.587 403.799 873.747C402.158 871.907 401.079 869.634 400.691 867.199C400.471 865.739 400.551 864.259 400.391 862.799C399.813 859.481 398.44 856.352 396.391 853.679C395.218 852.133 394.206 850.471 393.371 848.719C392.051 845.499 393.111 841.859 393.951 838.719C394.691 835.939 395.471 832.879 396.431 833.139V834.859C398.661 836.618 401.431 837.551 404.271 837.499C406.631 837.579 412.211 837.119 412.191 835.359Z" fill="#263238"/>
<path d="M476.523 818.463C477.343 818.463 478.003 819.643 479.803 821.583C482.48 824.305 485.597 826.556 489.023 828.243C494.903 831.183 506.343 835.703 511.523 838.043C514.743 839.483 514.603 843.403 511.263 845.623C507.923 847.843 499.843 849.443 490.163 847.283C484.883 846.103 478.023 841.283 473.663 841.483C469.303 841.683 461.183 841.683 457.983 839.483C454.783 837.283 455.983 832.563 456.963 828.503C457.963 824.063 459.183 817.163 460.663 817.463V818.983C462.543 821.843 472.283 822.983 476.443 820.983L476.523 818.463Z" fill="#263238"/>
<path d="M439.365 661.178C447.48 658.657 454.943 654.383 461.225 648.658C461.225 648.658 457.005 656.538 444.465 663.898L450.465 722.438L439.365 661.178Z" fill="#263238"/>
<path d="M449.949 479.299C461.867 479.299 471.529 469.637 471.529 457.719C471.529 445.8 461.867 436.139 449.949 436.139C438.031 436.139 428.369 445.8 428.369 457.719C428.369 469.637 438.031 479.299 449.949 479.299Z" fill="#263238"/>
<path d="M412.65 473.059C412.65 473.059 416.15 489.479 417.55 492.179C418.484 493.843 420.024 495.083 421.85 495.639L421.59 484.099L412.65 473.059Z" fill="#263238"/>
<path d="M417.034 449.52C415.811 449.38 414.573 449.519 413.412 449.928C412.252 450.337 411.199 451.004 410.334 451.88C407.454 454.82 409.054 464.04 412.654 473.06L419.234 473.82L417.034 449.52Z" fill="#263238"/>
<path d="M421.219 473.82C419.899 474.6 418.019 472.06 416.379 470.36C414.739 468.66 409.439 466.36 406.779 471.92C404.119 477.48 409.119 485.14 413.319 486.46C420.519 488.72 421.599 484.1 421.599 484.1L422.139 510.92C431.119 522.42 455.999 521.44 445.639 509.42V501.42C448.851 501.939 452.111 502.106 455.359 501.92C460.659 501.1 463.999 496.92 465.599 491.18C468.199 481.96 469.179 474.5 466.979 456.36C464.579 436.48 441.459 436.36 428.979 444.14C416.499 451.92 421.219 473.82 421.219 473.82Z" fill="#FFA8A7"/>
<path d="M422.874 560.22C423.234 543.9 419.514 519.7 414.034 511.34C416.567 510.18 419.362 509.711 422.134 509.98C422.134 509.98 432.414 525.98 431.974 560.22H422.874Z" fill="#37474F"/>
<path d="M421.203 476.04C420.543 476.04 418.003 471.86 416.363 470.36C414.083 468.36 417.023 449.52 417.023 449.52C416.236 447.867 415.966 446.015 416.248 444.206C416.53 442.397 417.351 440.715 418.603 439.38C421.723 435.96 426.063 431.76 440.223 433.38C450.223 434.56 461.303 437.72 470.223 433.38C471.038 436.268 470.972 439.333 470.035 442.183C469.098 445.033 467.332 447.539 464.963 449.38C464.963 449.38 461.743 451.38 453.303 452.48C445.5 453.069 437.659 452.922 429.883 452.04C427.443 451.7 426.923 454.04 425.603 460.56C424.503 466.34 423.423 476 421.203 476.04Z" fill="#263238"/>
<path d="M417.061 450.979L409.061 446.699C409.316 446.167 409.675 445.691 410.118 445.301C410.561 444.911 411.077 444.614 411.637 444.427C412.197 444.24 412.788 444.168 413.376 444.215C413.965 444.262 414.537 444.426 415.061 444.699C416.136 445.289 416.944 446.27 417.316 447.439C417.688 448.608 417.597 449.875 417.061 450.979Z" fill="#263238"/>
<path d="M445.624 501.5C445.624 501.5 433.764 499.12 429.624 496.92C427.196 495.644 425.205 493.674 423.904 491.26C424.531 493.683 425.64 495.955 427.164 497.94C430.184 501.8 445.624 504.66 445.624 504.66V501.5Z" fill="#F28F8F"/>
<path d="M445.162 472.359C445.143 472.826 444.986 473.276 444.712 473.655C444.438 474.033 444.059 474.323 443.621 474.487C443.184 474.651 442.708 474.683 442.252 474.579C441.797 474.474 441.383 474.238 441.06 473.9C440.738 473.561 440.523 473.135 440.441 472.675C440.36 472.215 440.415 471.741 440.601 471.313C440.786 470.884 441.094 470.519 441.486 470.265C441.877 470.01 442.335 469.875 442.802 469.879C443.12 469.887 443.433 469.957 443.724 470.086C444.015 470.215 444.277 470.4 444.496 470.63C444.715 470.86 444.887 471.132 445.001 471.428C445.116 471.725 445.17 472.041 445.162 472.359Z" fill="#263238"/>
<path d="M442.668 463.399L437.588 466.199C437.232 465.509 437.157 464.708 437.376 463.963C437.596 463.218 438.094 462.587 438.768 462.199C439.101 462.016 439.468 461.901 439.847 461.862C440.225 461.824 440.608 461.861 440.972 461.973C441.336 462.085 441.673 462.269 441.965 462.514C442.256 462.759 442.495 463.06 442.668 463.399Z" fill="#263238"/>
<path d="M444.514 487.258L449.934 489.258C449.817 489.622 449.628 489.959 449.377 490.249C449.127 490.538 448.821 490.774 448.477 490.942C448.133 491.11 447.759 491.207 447.377 491.227C446.995 491.247 446.613 491.189 446.254 491.058C445.53 490.771 444.944 490.216 444.62 489.507C444.296 488.799 444.258 487.993 444.514 487.258Z" fill="#F28F8F"/>
<path d="M466.324 465.381L461.684 461.801C461.9 461.491 462.177 461.228 462.498 461.028C462.819 460.828 463.177 460.695 463.551 460.637C463.925 460.579 464.307 460.597 464.673 460.691C465.04 460.784 465.383 460.951 465.684 461.181C466.305 461.668 466.717 462.374 466.836 463.155C466.955 463.935 466.772 464.731 466.324 465.381Z" fill="#263238"/>
<path d="M464.885 471.681C464.866 472.148 464.709 472.599 464.435 472.977C464.161 473.356 463.782 473.645 463.344 473.809C462.907 473.973 462.431 474.005 461.975 473.901C461.52 473.796 461.105 473.56 460.783 473.222C460.461 472.883 460.246 472.458 460.164 471.998C460.082 471.538 460.138 471.064 460.324 470.635C460.509 470.206 460.817 469.842 461.209 469.587C461.6 469.332 462.058 469.198 462.525 469.201C463.165 469.222 463.772 469.494 464.213 469.958C464.655 470.422 464.896 471.041 464.885 471.681Z" fill="#263238"/>
<path d="M452.19 469.879L452.95 484.159L460.41 481.619L452.19 469.879Z" fill="#F28F8F"/>
<path d="M565.445 496.397C565.445 491.997 569.125 485.858 568.005 482.598L559.885 477.897L543.605 518.798L527.005 528.238L518.805 516.238L543.345 479.617L535.225 474.938C534.205 475.417 533.225 475.938 532.105 476.538C513.565 487.078 498.425 513.038 498.285 534.538C498.285 545.378 501.985 552.978 508.105 556.538L516.105 561.197L517.045 558.757H517.645V749.058C506.245 761.758 498.305 779.598 498.205 795.058C498.205 803.058 500.205 809.378 503.785 813.538L511.905 818.238L520.045 772.637L536.645 763.197L544.845 775.197L528.525 816.577L536.645 821.257C536.645 821.257 565.325 778.458 565.465 756.978C565.678 751.606 564.471 746.273 561.965 741.517L563.965 739.817L555.965 735.158C552.948 733.371 549.465 732.528 545.965 732.738V542.457C557.405 529.757 565.345 511.937 565.445 496.397Z" fill="#455A64"/>
<path d="M517.716 749.079L525.836 753.779V563.479L517.716 558.779V749.079Z" fill="#263238"/>
<path d="M554.121 737.461V547.161C565.521 534.461 573.461 516.621 573.561 501.161C573.561 493.161 571.561 486.841 568.001 482.681L551.721 523.581L535.121 533.021L526.921 521.021L543.341 479.701C542.314 480.181 541.274 480.721 540.221 481.321C521.681 491.861 506.541 517.821 506.401 539.321C506.301 555.081 514.281 564.001 525.841 563.541V753.841C514.441 766.521 506.501 784.361 506.401 799.841C506.401 807.841 508.401 814.161 511.981 818.341L528.241 777.421L544.841 768.001L553.041 780.001L536.621 821.301C537.661 820.821 538.621 820.301 539.741 819.701C558.281 809.161 573.421 783.201 573.561 761.701C573.661 745.921 565.681 737.001 554.121 737.461Z" fill="#37474F"/>
<path d="M541.293 770.002L544.833 768.002L553.033 779.962L536.613 821.262L528.493 816.582L544.913 775.262L541.293 770.002Z" fill="#263238"/>
<path d="M554.103 581.018C554.103 584.078 549.463 587.478 546.103 589.618C542.743 591.758 538.383 594.738 540.103 600.918C540.404 602.122 540.957 603.248 541.724 604.224C542.491 605.2 543.455 606.003 544.554 606.581C545.653 607.159 546.861 607.498 548.1 607.577C549.338 607.655 550.58 607.472 551.743 607.038C553.778 606.151 555.545 604.746 556.868 602.963C558.191 601.181 559.024 599.082 559.283 596.878C560.123 591.178 562.043 577.537 554.243 575.938L554.103 581.018Z" fill="#FFA8A7"/>
<path d="M367.773 597.379C381.293 536.679 389.773 523.379 408.573 516.439L406.013 552.919C406.013 552.919 388.373 592.219 385.713 606.219C383.373 618.439 380.753 633.799 381.173 644.219C381.253 646.068 382.015 647.821 383.312 649.139C386.772 652.739 387.752 655.759 390.032 659.759C391.792 662.899 393.693 664.039 393.173 664.759C392.498 665.543 391.546 666.034 390.517 666.131C389.488 666.228 388.462 665.923 387.653 665.279C385.798 663.956 384.112 662.411 382.633 660.68C383.127 664.735 384.268 668.685 386.013 672.379C390.013 680.839 389.153 685.219 377.553 682.379C370.273 680.619 365.553 674.7 364.173 657.36C363.519 650.975 363.325 644.552 363.592 638.139C364.792 621.639 365.593 607.139 367.773 597.379Z" fill="#FFA8A7"/>
<path d="M410.216 512.221C405.399 512.382 400.711 513.825 396.636 516.401C391.916 519.581 384.056 532.401 379.076 548.261C374.096 564.121 371.476 572.921 371.476 572.921C371.476 572.921 379.636 585.341 397.236 580.441C397.236 580.441 407.136 555.641 406.576 557.221C406.516 557.261 419.696 532.801 410.216 512.221Z" fill="#E6E6E6"/>
</svg>
