<svg width="120" height="50" viewBox="0 0 120 50" fill="none" xmlns="http://www.w3.org/2000/svg">
<path fill-rule="evenodd" clip-rule="evenodd" d="M49.0957 20.3389V20.3389L49.0783 20.3389C48.0794 20.3389 47.2696 21.1292 47.2696 22.1041C47.2696 23.079 48.0794 23.8693 49.0783 23.8693L49.0957 23.8692V23.8693H60.9218H61.0435V23.8652C61.9664 23.803 62.6957 23.0383 62.6957 22.1041C62.6957 21.1699 61.9664 20.4052 61.0435 20.343V20.3389H60.9218H49.0957Z" fill="black"/>
<path fill-rule="evenodd" clip-rule="evenodd" d="M48.9913 31.5216C49.068 31.5216 49.1435 31.5159 49.2174 31.5049V31.5217H60.9913H61.1652V31.513C62.044 31.4244 62.7304 30.6718 62.7304 29.7565C62.7304 28.8411 62.044 28.0885 61.1652 28V27.9912H60.9913H49.2174V28.008C49.1435 27.9969 49.068 27.9912 48.9913 27.9912C48.0884 27.9912 47.3565 28.7815 47.3565 29.7564C47.3565 30.7313 48.0884 31.5216 48.9913 31.5216Z" fill="#FF9800"/>
<path d="M16.196 12.972C16.196 13.186 16.1465 13.3808 16.0475 13.5565C15.9485 13.7289 15.8016 13.8663 15.6067 13.9685C15.4151 14.0707 15.182 14.1218 14.9073 14.1218H14.4857V15.1997H13.4222V11.8078H14.9073C15.3225 11.8078 15.6403 11.9132 15.8607 12.124C16.0842 12.3348 16.196 12.6175 16.196 12.972ZM14.7875 13.2834C15.0079 13.2834 15.1181 13.1796 15.1181 12.972C15.1181 12.7644 15.0079 12.6606 14.7875 12.6606H14.4857V13.2834H14.7875ZM22.7661 15.1997L22.129 13.9829H22.1242V15.1997H21.0606V11.8078H22.6416C22.9162 11.8078 23.151 11.8574 23.3458 11.9564C23.5406 12.0522 23.686 12.1847 23.7818 12.354C23.8808 12.5201 23.9303 12.7085 23.9303 12.9193C23.9303 13.1461 23.8664 13.3473 23.7387 13.5229C23.6141 13.6986 23.4336 13.8248 23.1973 13.9014L23.9351 15.1997H22.7661ZM22.1242 13.2738H22.5458C22.648 13.2738 22.7246 13.2515 22.7757 13.2067C22.8268 13.1588 22.8524 13.0854 22.8524 12.9864C22.8524 12.8969 22.8252 12.8267 22.7709 12.7756C22.7198 12.7245 22.6448 12.6989 22.5458 12.6989H22.1242V13.2738ZM30.4501 15.2332C30.1308 15.2332 29.8369 15.1582 29.5686 15.0081C29.3035 14.858 29.0928 14.6504 28.9363 14.3853C28.7798 14.1202 28.7015 13.8216 28.7015 13.4894C28.7015 13.1572 28.7798 12.8586 28.9363 12.5935C29.0928 12.3284 29.3035 12.1224 29.5686 11.9755C29.8369 11.8254 30.1308 11.7504 30.4501 11.7504C30.7695 11.7504 31.0618 11.8254 31.3268 11.9755C31.5919 12.1224 31.8011 12.3284 31.9544 12.5935C32.1109 12.8586 32.1892 13.1572 32.1892 13.4894C32.1892 13.8216 32.1109 14.1202 31.9544 14.3853C31.8011 14.6504 31.5903 14.858 31.3221 15.0081C31.057 15.1582 30.7663 15.2332 30.4501 15.2332ZM30.4501 14.2416C30.6609 14.2416 30.8238 14.1745 30.9388 14.0403C31.0538 13.903 31.1113 13.7194 31.1113 13.4894C31.1113 13.2563 31.0538 13.0726 30.9388 12.9385C30.8238 12.8011 30.6609 12.7325 30.4501 12.7325C30.2361 12.7325 30.0717 12.8011 29.9567 12.9385C29.8417 13.0726 29.7842 13.2563 29.7842 13.4894C29.7842 13.7194 29.8417 13.903 29.9567 14.0403C30.0717 14.1745 30.2361 14.2416 30.4501 14.2416ZM39.4668 11.8078V13.9972C39.4668 14.4028 39.3598 14.711 39.1458 14.9218C38.935 15.1294 38.638 15.2332 38.2547 15.2332C37.8427 15.2332 37.5153 15.1199 37.2726 14.8931C37.0299 14.6663 36.9085 14.3358 36.9085 13.9014H37.9577C37.9577 14.0387 37.98 14.1362 38.0247 14.1936C38.0695 14.2479 38.1301 14.2751 38.2068 14.2751C38.2707 14.2751 38.3202 14.2543 38.3553 14.2128C38.3904 14.1713 38.408 14.0994 38.408 13.9972V11.8078H39.4668ZM45.5167 12.6558V13.0726H46.5707V13.8727H45.5167V14.3517H46.7144V15.1997H44.4532V11.8078H46.7144V12.6558H45.5167ZM51.5467 13.499C51.5467 13.1636 51.6138 12.865 51.7479 12.6031C51.8853 12.3412 52.0801 12.1384 52.3324 11.9947C52.5847 11.8478 52.8817 11.7743 53.2235 11.7743C53.5173 11.7743 53.7792 11.8302 54.0092 11.942C54.2423 12.0506 54.4307 12.2055 54.5745 12.4067C54.7214 12.6079 54.8188 12.8427 54.8667 13.1109H53.7457C53.6946 12.9992 53.6211 12.9129 53.5253 12.8522C53.4327 12.7884 53.3257 12.7564 53.2043 12.7564C53.0255 12.7564 52.8833 12.8235 52.7779 12.9576C52.6757 13.0918 52.6246 13.2722 52.6246 13.499C52.6246 13.7257 52.6757 13.9062 52.7779 14.0403C52.8833 14.1745 53.0255 14.2416 53.2043 14.2416C53.3257 14.2416 53.4327 14.2112 53.5253 14.1505C53.6211 14.0867 53.6946 13.9988 53.7457 13.887H54.8667C54.8188 14.1553 54.7214 14.3901 54.5745 14.5913C54.4307 14.7925 54.2423 14.949 54.0092 15.0608C53.7792 15.1694 53.5173 15.2237 53.2235 15.2237C52.8817 15.2237 52.5847 15.1518 52.3324 15.0081C52.0801 14.8612 51.8853 14.6568 51.7479 14.3949C51.6138 14.133 51.5467 13.8343 51.5467 13.499ZM62.4406 11.8078V12.651H61.5399V15.1997H60.4764V12.651H59.5853V11.8078H62.4406Z" fill="black"/>
<path fill-rule="evenodd" clip-rule="evenodd" d="M29.6348 20.3389H39.9739H40.0522V20.3404C41.0292 20.3799 41.8087 21.1544 41.8087 22.1041C41.8087 23.0538 41.0292 23.8283 40.0522 23.8677V23.8693H39.9739H34.8522C32.8924 24.3131 31.9089 25.0141 31.3218 26.791L31.3218 26.791V36.4171V36.4258H31.3217C31.317 37.3775 30.5324 38.1476 29.5652 38.1476C28.5981 38.1476 27.8135 37.3775 27.8087 36.4258H27.8087V36.4171V22.0432H27.8089C27.8211 21.0809 28.5068 20.3389 29.6348 20.3389Z" fill="black"/>
<path fill-rule="evenodd" clip-rule="evenodd" d="M15.0609 23.8692V23.8693H15.0783H23.9304H23.9478V23.8692C25.006 23.8607 25.8609 23.0737 25.8609 22.1041C25.8609 21.1345 25.006 20.3475 23.9478 20.3389V20.3389H23.9304H15.0783H15.0609V20.3389C14.0316 20.3477 13.2 21.1346 13.2 22.1041C13.2 23.0735 14.0316 23.8605 15.0609 23.8692Z" fill="black"/>
<path fill-rule="evenodd" clip-rule="evenodd" d="M62.6956 37.3219C62.6956 38.2968 61.9287 39.0871 60.9826 39.0871C60.9387 39.0871 60.8952 39.0854 60.8521 39.082V39.0871H49.1096C49.1078 39.0871 49.1061 39.0871 49.1043 39.0871C49.1026 39.0871 49.1008 39.0871 49.0991 39.0871H49.0956V39.0871C48.1247 39.0824 47.3391 38.2939 47.3391 37.3219C47.3391 36.3499 48.1247 35.5614 49.0956 35.5567V35.5566H60.8521V35.5617C60.8952 35.5583 60.9387 35.5566 60.9826 35.5566C61.9287 35.5566 62.6956 36.347 62.6956 37.3219Z" fill="#00BBF2"/>
<path fill-rule="evenodd" clip-rule="evenodd" d="M88.0695 20.2869C88.6066 20.055 89.2898 20.1286 89.8267 20.4392L89.8267 20.4392L101.213 26.2319C102.929 26.8566 107.103 28.8228 106.791 33.0869C106.791 33.0879 106.791 33.0889 106.791 33.0899C106.787 33.4868 106.736 33.871 106.647 34.2428C106.571 34.6286 106.476 34.9093 106.367 35.104C106.111 35.7324 105.756 36.3229 105.356 36.8782C104.546 38.0042 103.191 38.4576 101.922 38.7825C100.653 39.1075 99.2722 38.8431 98.0956 38.226C96.9406 37.6202 95.5643 35.7986 95.0866 35.1069L95.086 35.1073L95.079 35.096C95.0728 35.0869 95.0667 35.0781 95.0608 35.0695L95.0621 35.0687L87.3415 22.6305L87.3434 22.6293C87.3332 22.6119 87.3234 22.5943 87.3138 22.5764C86.8792 21.7644 87.2212 20.7409 88.0695 20.2869ZM97.7911 33.4087L97.7913 33.4086C97.8002 33.422 97.8188 33.4517 97.8458 33.4947C98.0828 33.8723 98.9614 35.2721 99.4869 35.5478C100.072 35.8548 100.83 36.2399 101.461 36.0782C102.092 35.9165 102.927 35.5166 103.33 34.9565C103.724 34.4094 103.921 33.7887 103.93 33.0936C103.922 33.0454 103.767 32.1315 103.183 31.2521C103.004 30.9832 102.048 30.4734 101.318 30.0843L101.318 30.0842L101.318 30.0842C101.023 29.927 100.765 29.7895 100.61 29.6956L99.6663 29.1907L93.0991 25.8497L97.7911 33.4087Z" fill="black"/>
<path fill-rule="evenodd" clip-rule="evenodd" d="M67.6522 13.2347L67.6522 13.2296L67.6522 13.2086H67.6524C67.6669 12.2842 68.4515 11.5391 69.4174 11.5391C70.3832 11.5391 71.1679 12.2842 71.1824 13.2086H71.1826L71.1826 20.2956C71.3741 22.0689 72.2832 23.5683 74.3685 23.7826H80.0807C80.1017 23.7819 80.1231 23.7819 80.1448 23.7826H80.1565V23.783C80.4174 23.7936 80.7177 23.8996 80.9565 24.1478C81.8902 25.1182 82.8886 27.3931 83.5484 28.8967L83.5484 28.8967L83.5485 28.8968L83.5485 28.8969C83.6351 29.0941 83.7158 29.2781 83.7898 29.4441L86.9187 35.3394C86.9361 35.3678 86.9528 35.3969 86.9687 35.4266C87.4202 36.2702 87.0894 37.3269 86.2298 37.7869C85.3703 38.247 84.3075 37.9361 83.856 37.0926C83.7965 36.9813 83.7505 36.8663 83.7176 36.7494L79.6755 29.1261L79.9043 29.7043C78.8694 27.6963 77.8309 27.5006 76.8412 27.3141L76.8411 27.3141L76.8352 27.313H74.0578C72.3185 27.732 71.6193 28.1954 71.1826 30.7825L71.1826 36.7565H71.1809C71.182 36.7824 71.1826 36.8085 71.1826 36.8347C71.1826 37.8096 70.3923 38.5999 69.4174 38.5999C68.4425 38.5999 67.6522 37.8096 67.6522 36.8347C67.6522 36.8085 67.6527 36.7824 67.6539 36.7565H67.6522L67.6522 13.2398L67.6522 13.2347Z" fill="black"/>
</svg>
