<svg width="20" height="17" viewBox="0 0 20 17" fill="none" xmlns="http://www.w3.org/2000/svg">
<path d="M0.0334718 7.23361C-0.166528 9.63361 0.533472 11.6336 2.03347 13.4336C3.53347 15.2336 5.53347 16.0336 7.93347 16.0336H17.9335C18.4335 16.0336 18.9335 15.8336 19.3335 15.4336C19.7335 15.0336 19.9335 14.5336 19.9335 14.0336V13.2336C19.9335 12.6336 19.8335 11.9336 19.7335 11.0336H11.5335C10.5335 11.0336 9.73347 10.6336 9.03347 9.93361C8.33347 9.23361 7.93347 8.33361 7.93347 7.43361C7.93347 5.83361 8.63347 4.73361 10.1335 4.13361L14.9335 2.03361C13.2335 0.833613 11.2335 0.133613 8.93347 0.0336129C6.73347 -0.166387 4.73347 0.533613 2.93347 1.93361C1.13347 3.33361 0.233472 5.03361 0.0334718 7.23361ZM9.93347 7.43361C9.93347 7.83361 10.1335 8.23361 10.4335 8.53361C10.7335 8.83361 11.1335 9.03361 11.5335 9.03361H19.3335C18.7335 6.83361 17.8335 5.03361 16.5335 3.63361L10.9335 5.93361C10.2335 6.13361 9.93347 6.63361 9.93347 7.43361Z" fill="white"/>
</svg>
