<svg width="19" height="25" viewBox="0 0 19 25" fill="none" xmlns="http://www.w3.org/2000/svg">
<path d="M7.8977 0.000107779L7.38192 1.75916C8.06695 1.61617 8.77513 1.54176 9.50103 1.54176C10.0533 1.54176 10.596 1.58597 11.1256 1.66987L10.6297 0H7.8977V0.000107779ZM9.50092 2.63368C4.24787 2.63368 0 6.97578 0 12.3475C0 17.7191 4.24787 22.0613 9.50092 22.0613C14.7538 22.0613 19 17.7192 19 12.3475C19 6.97567 14.7539 2.63357 9.50087 2.63357L9.50092 2.63368ZM9.50092 4.8814C13.5336 4.8814 16.8019 8.22357 16.8019 12.3476C16.8019 16.4714 13.5336 19.8154 9.50087 19.8154C5.46803 19.8154 2.19815 16.4714 2.19815 12.3476C2.19815 8.22357 5.46803 4.8814 9.50087 4.8814H9.50092ZM9.49918 6.9809C6.60129 6.9809 4.25124 9.38245 4.25124 12.3458C4.25124 15.3092 6.60129 17.7108 9.49918 17.7108C12.3971 17.7108 14.7455 15.3092 14.7455 12.3458C14.7455 9.38245 12.3971 6.9809 9.49918 6.9809ZM9.50087 9.12078C11.2436 9.12078 12.6562 10.5653 12.6562 12.3475C12.6562 14.1296 11.2436 15.5742 9.50082 15.5742C7.75792 15.5742 6.34536 14.1297 6.34536 12.3475C6.34536 10.5652 7.75792 9.12068 9.50077 9.12068L9.50087 9.12078ZM9.50087 10.7872C8.6576 10.7872 7.97336 11.4853 7.97336 12.3476C7.97336 13.2098 8.6576 13.9096 9.50087 13.9096C10.344 13.9096 11.0266 13.2098 11.0266 12.3475C11.0266 11.4854 10.344 10.7873 9.50082 10.7873L9.50087 10.7872ZM2.03664 19.9922L0.568505 24.9999H3.04015L4.10946 21.6401C3.35463 21.1804 2.65839 20.6269 2.03664 19.9922ZM16.652 20.2989C16.0174 20.8956 15.3142 21.4111 14.5577 21.8339L15.5727 25H18.046L16.6521 20.2989H16.652ZM7.95043 23.0369V24.9999H10.6971V23.0842C10.2999 23.1301 9.90056 23.1531 9.50087 23.1532C8.97412 23.1532 8.45634 23.1133 7.95027 23.037L7.95043 23.0369Z" fill="white"/>
</svg>
