<svg width="144" height="136" viewBox="0 0 144 136" fill="none" xmlns="http://www.w3.org/2000/svg">
<path d="M8.4488 56.7108L41.1943 63.4636L47.672 28.7112C47.854 27.7392 48.2547 26.8164 48.8441 26.0117C49.4336 25.2069 50.1967 24.5409 51.0767 24.0632C51.9566 23.5855 52.9306 23.3085 53.9263 23.2528C54.9219 23.197 55.9135 23.364 56.8272 23.7413L88.8203 36.9423L100.894 4.87992C101.369 3.62237 102.218 2.5316 103.329 1.7536C104.439 0.975594 105.757 0.54747 107.107 0.526535C108.456 0.505601 109.773 0.892847 110.88 1.63645C111.988 2.38005 112.833 3.44453 113.303 4.68742L137.393 68.4851L43.2223 120.911L1.70099 67.1682C0.882035 66.1111 0.415796 64.8248 0.365427 63.4836C0.315056 62.1423 0.682989 60.8109 1.41939 59.6697C2.15579 58.5284 3.22508 57.6325 4.48242 57.1033C5.73976 56.574 7.1244 56.437 8.4488 56.7108ZM46.8471 126.355L139.896 74.5539L143.067 80.2503C143.908 81.7611 144.102 83.5512 143.606 85.2266C143.11 86.9021 141.965 88.3257 140.423 89.1844L59.0052 134.51C57.4629 135.369 55.6495 135.592 53.9642 135.131C52.2788 134.67 50.8595 133.562 50.0184 132.051L46.8471 126.355Z" fill="#FFCC4D"/>
</svg>
