<svg width="5384" height="1584" viewBox="0 0 5384 1584" fill="none" xmlns="http://www.w3.org/2000/svg">
<path fill-rule="evenodd" clip-rule="evenodd" d="M2065 506V506.005C2064.67 506.002 2064.33 506 2064 506C2006.56 506 1960 551.443 1960 607.5C1960 663.557 2006.56 709 2064 709C2064.33 709 2064.67 708.998 2065 708.995V709H2745H2752V708.765C2805.07 705.186 2847 661.216 2847 607.5C2847 553.784 2805.07 509.814 2752 506.235V506H2745H2065Z" fill="white"/>
<path fill-rule="evenodd" clip-rule="evenodd" d="M2059 1149C2063.41 1149 2067.75 1148.67 2072 1148.04V1149H2749H2759V1148.5C2809.53 1143.41 2849 1100.13 2849 1047.5C2849 994.869 2809.53 951.594 2759 946.501V946H2749H2072V946.963C2067.75 946.328 2063.41 946 2059 946C2007.09 946 1965 991.443 1965 1047.5C1965 1103.56 2007.09 1149 2059 1149Z" fill="#FF9800"/>
<path d="M173.27 105.907C173.27 118.211 170.423 129.414 164.73 139.514C159.037 149.431 150.59 157.328 139.387 163.205C128.368 169.081 114.962 172.02 99.1688 172.02H74.9275V234H13.7734V38.9681H99.1688C123.043 38.9681 141.316 45.0284 153.987 57.149C166.842 69.2696 173.27 85.5223 173.27 105.907ZM92.2821 123.812C104.954 123.812 111.289 117.844 111.289 105.907C111.289 93.97 104.954 88.0015 92.2821 88.0015H74.9275V123.812H92.2821ZM551.052 234L514.414 164.031H514.139V234H452.985V38.9681H543.89C559.683 38.9681 573.181 41.8146 584.383 47.5076C595.586 53.017 603.942 60.6383 609.451 70.3715C615.144 79.9211 617.991 90.7562 617.991 102.877C617.991 115.916 614.318 127.485 606.972 137.586C599.81 147.686 589.434 154.94 575.844 159.348L618.266 234H551.052ZM514.139 123.262H538.38C544.257 123.262 548.664 121.976 551.603 119.405C554.541 116.65 556.01 112.426 556.01 106.733C556.01 101.591 554.449 97.5511 551.327 94.6128C548.389 91.6744 544.073 90.2053 538.38 90.2053H514.139V123.262ZM992.882 235.928C974.518 235.928 957.622 231.613 942.196 222.981C926.953 214.35 914.833 202.413 905.834 187.17C896.835 171.928 892.336 154.757 892.336 135.658C892.336 116.558 896.835 99.3876 905.834 84.1449C914.833 68.9023 926.953 57.0572 942.196 48.6095C957.622 39.9781 974.518 35.6624 992.882 35.6624C1011.25 35.6624 1028.05 39.9781 1043.29 48.6095C1058.54 57.0572 1070.56 68.9023 1079.38 84.1449C1088.38 99.3876 1092.88 116.558 1092.88 135.658C1092.88 154.757 1088.38 171.928 1079.38 187.17C1070.56 202.413 1058.44 214.35 1043.02 222.981C1027.77 231.613 1011.06 235.928 992.882 235.928ZM992.882 178.906C1005 178.906 1014.37 175.05 1020.98 167.337C1027.59 159.44 1030.9 148.88 1030.9 135.658C1030.9 122.251 1027.59 111.692 1020.98 103.979C1014.37 96.0819 1005 92.1335 992.882 92.1335C980.578 92.1335 971.12 96.0819 964.509 103.979C957.898 111.692 954.592 122.251 954.592 135.658C954.592 148.88 957.898 159.44 964.509 167.337C971.12 175.05 980.578 178.906 992.882 178.906ZM1511.34 38.9681V164.857C1511.34 188.18 1505.19 205.902 1492.88 218.023C1480.76 229.96 1463.68 235.928 1441.64 235.928C1417.95 235.928 1399.13 229.409 1385.17 216.37C1371.22 203.331 1364.24 184.324 1364.24 159.348H1424.57C1424.57 167.245 1425.85 172.846 1428.42 176.152C1430.99 179.274 1434.48 180.835 1438.89 180.835C1442.56 180.835 1445.41 179.641 1447.43 177.253C1449.45 174.866 1450.46 170.734 1450.46 164.857V38.9681H1511.34ZM1859.21 87.726V111.692H1919.82V157.695H1859.21V185.242H1928.08V234H1798.06V38.9681H1928.08V87.726H1859.21ZM2205.94 136.209C2205.94 116.926 2209.79 99.7548 2217.5 84.6959C2225.4 69.6369 2236.6 57.9754 2251.11 49.7113C2265.62 41.2636 2282.7 37.0398 2302.35 37.0398C2319.24 37.0398 2334.3 40.2536 2347.53 46.6812C2360.93 52.9251 2371.77 61.832 2380.03 73.4017C2388.48 84.9713 2394.08 98.4693 2396.84 113.896H2332.38C2329.44 107.468 2325.21 102.51 2319.7 99.0203C2314.38 95.3473 2308.23 93.5109 2301.25 93.5109C2290.96 93.5109 2282.79 97.3674 2276.73 105.081C2270.85 112.794 2267.92 123.17 2267.92 136.209C2267.92 149.247 2270.85 159.623 2276.73 167.337C2282.79 175.05 2290.96 178.906 2301.25 178.906C2308.23 178.906 2314.38 177.162 2319.7 173.672C2325.21 169.999 2329.44 164.949 2332.38 158.522H2396.84C2394.08 173.948 2388.48 187.446 2380.03 199.015C2371.77 210.585 2360.93 219.584 2347.53 226.011C2334.3 232.255 2319.24 235.377 2302.35 235.377C2282.7 235.377 2265.62 231.245 2251.11 222.981C2236.6 214.534 2225.4 202.78 2217.5 187.721C2209.79 172.662 2205.94 155.491 2205.94 136.209ZM2832.33 38.9681V87.4506H2780.54V234H2719.39V87.4506H2668.15V38.9681H2832.33Z" fill="white"/>
<path fill-rule="evenodd" clip-rule="evenodd" d="M946 506H1540.5H1545V506.091C1601.18 508.359 1646 552.894 1646 607.5C1646 662.106 1601.18 706.641 1545 708.909V709H1540.5H1246C1133.31 734.516 1076.76 774.827 1043 877V1430.5V1431H1043C1042.73 1485.72 997.611 1530 942 1530C886.389 1530 841.275 1485.72 841.001 1431H841V1430.5V605.5V604H841.009C841.709 548.67 881.139 506 946 506Z" fill="white"/>
<path fill-rule="evenodd" clip-rule="evenodd" d="M108 708.996V709H109H618H619V708.996C679.843 708.505 729 663.252 729 607.5C729 551.748 679.843 506.495 619 506.004V506H618H109H108V506.004C48.8137 506.509 1 551.757 1 607.5C1 663.243 48.8137 708.491 108 708.996Z" fill="white"/>
<path fill-rule="evenodd" clip-rule="evenodd" d="M2065 1584V1584H2065.5H2741V1583.71C2743.48 1583.9 2745.98 1584 2748.5 1584C2802.9 1584 2847 1538.56 2847 1482.5C2847 1426.44 2802.9 1381 2748.5 1381C2745.98 1381 2743.48 1381.1 2741 1381.29V1381H2065.5H2065V1381C2009.17 1381.27 1964 1426.61 1964 1482.5C1964 1538.39 2009.17 1583.73 2065 1584Z" fill="#00BBF2"/>
<path fill-rule="evenodd" clip-rule="evenodd" d="M4306 503C4336.88 489.666 4376.17 493.901 4407.04 511.761L4407.04 511.759L5061.77 844.841C5160.41 880.758 5400.41 993.816 5382.5 1239C5382.5 1239.06 5382.49 1239.12 5382.49 1239.17C5382.27 1262 5379.33 1284.08 5374.2 1305.46C5369.83 1327.65 5364.36 1343.79 5358.11 1354.98C5343.36 1391.12 5322.98 1425.07 5300 1457C5253.41 1521.74 5175.46 1547.81 5102.5 1566.5C5029.54 1585.19 4950.15 1569.98 4882.5 1534.5C4816.09 1499.67 4736.95 1394.93 4709.48 1355.15L4709.45 1355.17L4709.06 1354.54C4708.69 1354.01 4708.34 1353.5 4708 1353L4708.07 1352.96L4264.14 637.758L4264.25 637.691C4263.66 636.691 4263.1 635.676 4262.55 634.646C4237.56 587.959 4257.22 529.106 4306 503ZM4864.99 1257.51L4865 1257.5C4865.51 1258.27 4866.58 1259.98 4868.14 1262.45C4881.77 1284.16 4932.28 1364.65 4962.5 1380.5C4996.16 1398.15 5039.7 1420.3 5076 1411C5112.3 1401.7 5160.32 1378.71 5183.5 1346.5C5206.14 1315.05 5217.46 1279.35 5217.98 1239.39C5217.53 1236.61 5208.58 1184.06 5175 1133.5C5164.73 1118.04 5109.75 1088.72 5067.79 1066.35L5067.79 1066.35L5067.78 1066.34C5050.82 1057.3 5035.99 1049.4 5027.1 1044L4972.81 1014.97L4595.2 822.863L4864.99 1257.51Z" fill="white"/>
<path fill-rule="evenodd" clip-rule="evenodd" d="M3132 97.5L3132 97.608L3132 1450H3132.1C3132.03 1451.49 3132 1452.99 3132 1454.5C3132 1510.56 3177.44 1556 3233.5 1556C3289.56 1556 3335 1510.56 3335 1454.5C3335 1452.99 3334.97 1451.49 3334.9 1450H3335L3335 1106.5C3360.11 957.739 3400.31 931.093 3500.33 907H3660.02L3660.37 907.065C3717.28 917.789 3776.99 929.042 3836.5 1044.5L3823.34 1011.26L4055.76 1449.6C4057.66 1456.32 4060.3 1462.93 4063.72 1469.33C4089.68 1517.83 4150.79 1535.7 4200.22 1509.25C4249.64 1482.8 4268.66 1422.04 4242.7 1373.53C4241.79 1371.82 4240.83 1370.15 4239.82 1368.51L4059.91 1029.54C4055.66 1019.99 4051.01 1009.41 4046.03 998.063C4008.09 911.605 3950.69 780.801 3897 725C3883.27 710.731 3866 704.636 3851 704.024V704H3850.31C3849.07 703.963 3847.85 703.964 3846.65 704H3518.18C3398.28 691.678 3346.01 605.46 3335 503.5V97.5V96H3334.99C3334.15 42.8439 3289.04 0 3233.5 0C3177.96 0 3132.85 42.8439 3132.01 96H3132L3132 97.392L3132 97.5Z" fill="white"/>
</svg>
