<svg width="6900" height="3025" viewBox="0 0 6900 3025" fill="none" xmlns="http://www.w3.org/2000/svg">
<rect width="6900" height="3025" fill="white"/>
<path fill-rule="evenodd" clip-rule="evenodd" d="M2823 1227V1227C2822.67 1227 2822.33 1227 2822 1227C2764.56 1227 2718 1272.44 2718 1328.5C2718 1384.56 2764.56 1430 2822 1430C2822.33 1430 2822.67 1430 2823 1430V1430H3503H3510V1429.76C3563.07 1426.19 3605 1382.22 3605 1328.5C3605 1274.78 3563.07 1230.81 3510 1227.24V1227H3503H2823Z" fill="black"/>
<path fill-rule="evenodd" clip-rule="evenodd" d="M2817 1870C2821.41 1870 2825.75 1869.67 2830 1869.04V1870H3507H3517V1869.5C3567.53 1864.41 3607 1821.13 3607 1768.5C3607 1715.87 3567.53 1672.59 3517 1667.5V1667H3507H2830V1667.96C2825.75 1667.33 2821.41 1667 2817 1667C2765.09 1667 2723 1712.44 2723 1768.5C2723 1824.56 2765.09 1870 2817 1870Z" fill="#FF9800"/>
<path d="M931.27 826.907C931.27 839.211 928.423 850.414 922.73 860.514C917.037 870.431 908.59 878.328 897.387 884.205C886.368 890.081 872.962 893.02 857.169 893.02H832.928V955H771.773V759.968H857.169C881.043 759.968 899.316 766.028 911.987 778.149C924.842 790.27 931.27 806.522 931.27 826.907ZM850.282 844.812C862.954 844.812 869.289 838.844 869.289 826.907C869.289 814.97 862.954 809.002 850.282 809.002H832.928V844.812H850.282ZM1309.05 955L1272.41 885.031H1272.14V955H1210.98V759.968H1301.89C1317.68 759.968 1331.18 762.815 1342.38 768.508C1353.59 774.017 1361.94 781.638 1367.45 791.371C1373.14 800.921 1375.99 811.756 1375.99 823.877C1375.99 836.916 1372.32 848.485 1364.97 858.586C1357.81 868.686 1347.43 875.94 1333.84 880.348L1376.27 955H1309.05ZM1272.14 844.262H1296.38C1302.26 844.262 1306.66 842.976 1309.6 840.405C1312.54 837.65 1314.01 833.426 1314.01 827.733C1314.01 822.591 1312.45 818.551 1309.33 815.613C1306.39 812.674 1302.07 811.205 1296.38 811.205H1272.14V844.262ZM1750.88 956.928C1732.52 956.928 1715.62 952.613 1700.2 943.981C1684.95 935.35 1672.83 923.413 1663.83 908.17C1654.84 892.928 1650.34 875.757 1650.34 856.658C1650.34 837.558 1654.84 820.388 1663.83 805.145C1672.83 789.902 1684.95 778.057 1700.2 769.609C1715.62 760.978 1732.52 756.662 1750.88 756.662C1769.25 756.662 1786.05 760.978 1801.29 769.609C1816.54 778.057 1828.56 789.902 1837.38 805.145C1846.38 820.388 1850.88 837.558 1850.88 856.658C1850.88 875.757 1846.38 892.928 1837.38 908.17C1828.56 923.413 1816.44 935.35 1801.02 943.981C1785.77 952.613 1769.06 956.928 1750.88 956.928ZM1750.88 899.906C1763 899.906 1772.37 896.05 1778.98 888.337C1785.59 880.44 1788.9 869.88 1788.9 856.658C1788.9 843.251 1785.59 832.692 1778.98 824.979C1772.37 817.082 1763 813.134 1750.88 813.134C1738.58 813.134 1729.12 817.082 1722.51 824.979C1715.9 832.692 1712.59 843.251 1712.59 856.658C1712.59 869.88 1715.9 880.44 1722.51 888.337C1729.12 896.05 1738.58 899.906 1750.88 899.906ZM2269.34 759.968V885.857C2269.34 909.18 2263.19 926.902 2250.88 939.023C2238.76 950.96 2221.68 956.928 2199.64 956.928C2175.95 956.928 2157.13 950.409 2143.17 937.37C2129.22 924.331 2122.24 905.324 2122.24 880.348H2182.57C2182.57 888.245 2183.85 893.846 2186.42 897.152C2188.99 900.274 2192.48 901.835 2196.89 901.835C2200.56 901.835 2203.41 900.641 2205.43 898.253C2207.45 895.866 2208.46 891.734 2208.46 885.857V759.968H2269.34ZM2617.21 808.726V832.692H2677.82V878.695H2617.21V906.242H2686.08V955H2556.06V759.968H2686.08V808.726H2617.21ZM2963.94 857.209C2963.94 837.926 2967.79 820.755 2975.5 805.696C2983.4 790.637 2994.6 778.975 3009.11 770.711C3023.62 762.264 3040.7 758.04 3060.35 758.04C3077.24 758.04 3092.3 761.254 3105.53 767.681C3118.93 773.925 3129.77 782.832 3138.03 794.402C3146.48 805.971 3152.08 819.469 3154.84 834.896H3090.38C3087.44 828.468 3083.21 823.51 3077.7 820.02C3072.38 816.347 3066.23 814.511 3059.25 814.511C3048.96 814.511 3040.79 818.367 3034.73 826.081C3028.85 833.794 3025.92 844.17 3025.92 857.209C3025.92 870.247 3028.85 880.623 3034.73 888.337C3040.79 896.05 3048.96 899.906 3059.25 899.906C3066.23 899.906 3072.38 898.162 3077.7 894.672C3083.21 890.999 3087.44 885.949 3090.38 879.522H3154.84C3152.08 894.948 3146.48 908.446 3138.03 920.015C3129.77 931.585 3118.93 940.584 3105.53 947.011C3092.3 953.255 3077.24 956.377 3060.35 956.377C3040.7 956.377 3023.62 952.245 3009.11 943.981C2994.6 935.534 2983.4 923.78 2975.5 908.721C2967.79 893.662 2963.94 876.491 2963.94 857.209ZM3590.33 759.968V808.451H3538.54V955H3477.39V808.451H3426.15V759.968H3590.33Z" fill="black"/>
<path fill-rule="evenodd" clip-rule="evenodd" d="M1704 1227H2298.5H2303V1227.09C2359.18 1229.36 2404 1273.89 2404 1328.5C2404 1383.11 2359.18 1427.64 2303 1429.91V1430H2298.5H2004C1891.31 1455.52 1834.76 1495.83 1801 1598V2151.5V2152H1801C1800.73 2206.72 1755.61 2251 1700 2251C1644.39 2251 1599.27 2206.72 1599 2152H1599V2151.5V1326.5V1325H1599.01C1599.71 1269.67 1639.14 1227 1704 1227Z" fill="black"/>
<path fill-rule="evenodd" clip-rule="evenodd" d="M866 1430V1430H867H1376H1377V1430C1437.84 1429.5 1487 1384.25 1487 1328.5C1487 1272.75 1437.84 1227.5 1377 1227V1227H1376H867H866V1227C806.814 1227.51 759 1272.76 759 1328.5C759 1384.24 806.814 1429.49 866 1430Z" fill="black"/>
<path fill-rule="evenodd" clip-rule="evenodd" d="M2823 2305V2305H2823.5H3499V2304.71C3501.48 2304.9 3503.98 2305 3506.5 2305C3560.9 2305 3605 2259.56 3605 2203.5C3605 2147.44 3560.9 2102 3506.5 2102C3503.98 2102 3501.48 2102.1 3499 2102.29V2102H2823.5H2823V2102C2767.17 2102.27 2722 2147.61 2722 2203.5C2722 2259.39 2767.17 2304.73 2823 2305Z" fill="#00BBF2"/>
<path fill-rule="evenodd" clip-rule="evenodd" d="M5064 1224C5094.88 1210.67 5134.17 1214.9 5165.04 1232.76L5165.04 1232.76L5819.76 1565.84C5918.4 1601.76 6158.41 1714.82 6140.5 1960C6140.5 1960.06 6140.49 1960.11 6140.49 1960.17C6140.27 1983 6137.33 2005.08 6132.2 2026.47C6127.83 2048.65 6122.36 2064.79 6116.11 2075.98C6101.36 2112.12 6080.98 2146.07 6058 2178C6011.41 2242.74 5933.46 2268.81 5860.5 2287.5C5787.54 2306.19 5708.15 2290.98 5640.5 2255.5C5574.08 2220.67 5494.95 2115.93 5467.48 2076.15L5467.45 2076.17L5467.05 2075.53C5466.69 2075.01 5466.34 2074.5 5466 2074L5466.07 2073.96L5022.14 1358.76L5022.25 1358.69C5021.66 1357.69 5021.1 1356.68 5020.54 1355.65C4995.56 1308.96 5015.22 1250.11 5064 1224ZM5622.99 1978.51L5623 1978.5C5623.51 1979.27 5624.58 1980.98 5626.14 1983.45C5639.77 2005.16 5690.28 2085.65 5720.5 2101.5C5754.16 2119.15 5797.7 2141.3 5834 2132C5870.3 2122.7 5918.32 2099.71 5941.5 2067.5C5964.14 2036.05 5975.46 2000.35 5975.98 1960.39C5975.53 1957.61 5966.58 1905.07 5933 1854.5C5922.73 1839.04 5867.75 1809.72 5825.79 1787.35L5825.78 1787.35L5825.78 1787.35C5808.83 1778.31 5794 1770.4 5785.1 1765L5730.81 1735.97L5353.2 1543.86L5622.99 1978.51Z" fill="black"/>
<path fill-rule="evenodd" clip-rule="evenodd" d="M3890 818.5L3890 818.608L3890 2171H3890.1C3890.03 2172.49 3890 2173.99 3890 2175.5C3890 2231.56 3935.44 2277 3991.5 2277C4047.56 2277 4093 2231.56 4093 2175.5C4093 2173.99 4092.97 2172.49 4092.9 2171H4093L4093 1827.5C4118.11 1678.74 4158.31 1652.09 4258.33 1628H4418.02L4418.37 1628.07C4475.28 1638.79 4534.99 1650.04 4594.5 1765.5L4581.34 1732.26L4813.76 2170.59C4815.66 2177.31 4818.3 2183.93 4821.72 2190.33C4847.68 2238.83 4908.79 2256.7 4958.22 2230.25C5007.64 2203.8 5026.66 2143.04 5000.7 2094.53C4999.79 2092.83 4998.83 2091.16 4997.83 2089.52L4817.91 1750.54C4813.66 1740.99 4809.02 1730.42 4804.04 1719.08L4804.03 1719.06C4766.09 1632.6 4708.69 1501.8 4655 1446C4641.27 1431.73 4624 1425.64 4609 1425.02V1425H4608.31C4607.07 1424.96 4605.85 1424.96 4604.65 1425H4276.18C4156.28 1412.68 4104.01 1326.46 4093 1224.5V818.5V817H4092.99C4092.15 763.844 4047.04 721 3991.5 721C3935.96 721 3890.85 763.844 3890.01 817H3890L3890 818.392L3890 818.5Z" fill="black"/>
</svg>
